<svg width="24" height="24" viewBox="0 0 24 24" fill="none" xmlns="http://www.w3.org/2000/svg">
<path d="M23.5615 10.932C23.5605 10.932 23.5605 10.9315 23.5605 10.9315L13.0615 0.42569C12.4951 -0.142059 11.5039 -0.141571 10.9395 0.425201L0.438477 10.932C0.15625 11.2159 0 11.5926 0 11.9928C0 12.3934 0.15625 12.7705 0.439453 13.0539L10.9385 23.5598C11.2217 23.8437 11.5986 24 12 24C12.4014 24 12.7783 23.8437 13.0605 23.5603L23.5605 13.0539C23.8438 12.7705 24 12.3934 24 11.9928C24 11.5926 23.8438 11.2159 23.5615 10.932Z" fill="#EF473B"/>
<path opacity="0.1" d="M23.681 12.6899L13.0716 23.3057C12.7864 23.592 12.4055 23.7501 12 23.7501C11.5945 23.7501 11.2136 23.592 10.9274 23.3052L0.319031 12.6899C0.195068 12.5659 0.100342 12.4216 0.0269165 12.2677C0.0814819 12.5637 0.222229 12.8366 0.439453 13.054L10.9385 23.5598C11.2217 23.8437 11.5986 24.0001 12 24.0001C12.4014 24.0001 12.7783 23.8437 13.0605 23.5603L23.5605 13.054C23.7778 12.8366 23.9186 12.5637 23.9731 12.2677C23.8997 12.4216 23.8049 12.5659 23.681 12.6899Z" fill="#010101"/>
<path d="M17 10.0001C16.6251 10.0001 16.278 10.1101 15.9778 10.2903L13.7097 8.02228C13.8899 7.72211 14 7.375 14 7.00006C14 5.89703 13.1025 5.00006 12 5.00006C11.6301 5.00006 11.2877 5.10785 10.9902 5.28363L8.53644 2.82959L7.82959 3.5368L10.2833 5.99078C10.1077 6.28815 10 6.63037 10 7.00006C10 7.92938 10.64 8.70544 11.5 8.92902V15.0711C10.64 15.2947 10 16.0707 10 17.0001C10 18.1031 10.8975 19.0001 12 19.0001C13.1025 19.0001 14 18.1031 14 17.0001C14 16.0707 13.36 15.2947 12.5 15.0711V8.92902C12.6768 8.88306 12.8425 8.81317 12.9969 8.72351L15.2766 11.0032C15.1053 11.2979 15 11.6354 15 12.0001C15 13.1031 15.8975 14.0001 17 14.0001C18.1025 14.0001 19 13.1031 19 12.0001C19 10.897 18.1025 10.0001 17 10.0001Z" fill="white"/>
<path opacity="0.2" d="M0.438477 11.182L10.9395 0.675201C11.5039 0.108429 12.4951 0.107941 13.0615 0.67569L23.5605 11.1815C23.5605 11.1815 23.5605 11.182 23.5615 11.182C23.8138 11.4358 23.9585 11.7653 23.9878 12.1178C23.9913 12.076 24 12.0352 24 11.9928C24 11.5926 23.8438 11.2159 23.5615 10.932C23.5605 10.932 23.5605 10.9315 23.5605 10.9315L13.0615 0.42569C12.4951 -0.142059 11.5039 -0.141571 10.9395 0.425201L0.438477 10.932C0.15625 11.2159 0 11.5926 0 11.9928C0 12.0352 0.008728 12.0759 0.012207 12.1177C0.0415649 11.7652 0.186218 11.4358 0.438477 11.182Z" fill="white"/>
<path d="M18.5488 10.7504C18.8265 11.0939 19 11.5249 19 12.0001C19 13.1031 18.1025 14.0001 17 14.0001C15.8975 14.0001 15 13.1031 15 12.0001C15 11.6354 15.1053 11.2979 15.2766 11.0032L12.9969 8.72351C12.8425 8.81317 12.6768 8.88306 12.5 8.92902V15.0711C13.36 15.2947 14 16.0707 14 17.0001C14 18.1031 13.1025 19.0001 12 19.0001C11.4885 19.0001 11.0262 18.8014 10.6721 18.4843L14.4039 22.2161L22.2068 14.4084L18.5488 10.7504ZM13.7097 8.02228L15.9778 10.2903C16.278 10.1101 16.6251 10.0001 17 10.0001C17.4751 10.0001 17.9062 10.1736 18.2498 10.4514L13.5721 5.77368L13.5697 5.7757C13.8351 6.11511 14 6.53668 14 7.00006C14 7.375 13.8899 7.72211 13.7097 8.02228Z" fill="url(#paint0_linear_165_441)"/>
<path d="M23.5615 10.932C23.5605 10.932 23.5605 10.9315 23.5605 10.9315L13.0615 0.42569C12.4951 -0.142059 11.5039 -0.141571 10.9395 0.425201L0.438477 10.932C0.15625 11.2159 0 11.5926 0 11.9928C0 12.3934 0.15625 12.7705 0.439453 13.0539L10.9385 23.5598C11.2217 23.8437 11.5986 24 12 24C12.4014 24 12.7783 23.8437 13.0605 23.5603L23.5605 13.0539C23.8438 12.7705 24 12.3934 24 11.9928C24 11.5926 23.8438 11.2159 23.5615 10.932Z" fill="url(#paint1_linear_165_441)"/>
<defs>
<linearGradient id="paint0_linear_165_441" x1="9.669" y1="9.67605" x2="18.307" y2="18.313" gradientUnits="userSpaceOnUse">
<stop stop-color="#010101" stop-opacity="0.1"/>
<stop offset="1" stop-color="#010101" stop-opacity="0"/>
</linearGradient>
<linearGradient id="paint1_linear_165_441" x1="2.014" y1="7.34002" x2="21.983" y2="16.652" gradientUnits="userSpaceOnUse">
<stop stop-color="white" stop-opacity="0.2"/>
<stop offset="1" stop-color="white" stop-opacity="0"/>
</linearGradient>
</defs>
</svg>
