<svg width="24" height="20" viewBox="0 0 24 20" fill="none" xmlns="http://www.w3.org/2000/svg">
<g clip-path="url(#clip0_17_542)">
<path d="M3.69934 13.6349L2.44384 14.0936L2.37634 17.8286L6.72244 16.241C5.23174 15.7403 4.14304 14.8592 3.69904 13.6349" fill="#FDBD39"/>
<path d="M4.3563 9.68445L0 11.2759L2.4438 14.0938L3.6993 13.6351C3.2565 12.4144 3.5295 11.0344 4.3563 9.68475" fill="#F69833"/>
<path d="M11.6871 4.29493C6.13979 6.32143 2.56349 10.5031 3.69929 13.6348L23.7879 6.29623C22.6521 3.16423 17.2344 2.26843 11.6874 4.29493" fill="#FECF33"/>
<path d="M15.7998 15.6364C21.3471 13.6099 24.93 9.44681 23.7876 6.29651L3.69934 13.6348C4.84174 16.7851 10.2528 17.6626 15.7998 15.6361" fill="#EE6723"/>
<path d="M23.7876 6.2962L3.69934 13.6348C4.09264 14.7196 5.59264 15.2539 7.69744 15.2539C9.80224 15.2539 12.3759 14.7463 15.1143 13.7458C20.6616 11.7193 24.5646 8.4382 23.7876 6.2959" fill="#F69833"/>
<path d="M19.7895 4.67712C17.7375 4.67712 15.111 5.18472 12.3723 6.18522C6.82503 8.21172 2.92203 11.4928 3.69903 13.6351L23.7876 6.29652C23.3943 5.21172 21.8943 4.67742 19.7895 4.67742" fill="#FDBD39"/>
<path d="M18.6801 18.0265C18.0891 18.0265 17.217 17.4925 16.0884 16.4398C14.7531 15.1942 13.2234 13.3696 11.7813 11.3023C10.3392 9.23529 9.15425 7.16859 8.44475 5.48289C7.67165 3.64599 7.56125 2.51679 8.11715 2.12619C8.23895 2.04069 8.38595 1.99719 8.55365 1.99719C9.00575 1.99719 9.88655 2.33379 11.5152 3.93699L11.5509 3.97209L11.5461 4.02189C11.535 4.13709 11.5248 4.25319 11.5155 4.36749L11.4972 4.59399L11.3373 4.43289C9.58235 2.66499 8.80985 2.47419 8.55935 2.47419C8.48795 2.47419 8.43095 2.48859 8.39015 2.51739C8.14925 2.68689 8.13365 3.51639 8.88305 5.29689C9.57995 6.95229 10.7478 8.98779 12.1713 11.0281C13.5948 13.0687 15.1011 14.8663 16.4124 16.0897C17.8266 17.4088 18.4638 17.5513 18.6723 17.5513C18.7443 17.5513 18.8028 17.5357 18.846 17.5054C19.1004 17.3266 19.1007 16.438 18.2646 14.5216L18.2262 14.4337L18.3102 14.3878C18.3942 14.3419 18.4755 14.2966 18.5517 14.2531L18.6522 14.1958L18.6987 14.302C19.2915 15.6601 19.8453 17.386 19.119 17.8966C18.9966 17.9827 18.849 18.0262 18.6801 18.0262V18.0265Z" fill="#EE6723"/>
<path d="M15.9344 15.5791L15.926 15.6835C15.7859 17.4187 15.4166 19.5052 14.4536 19.5895C14.4341 19.5913 14.414 19.5922 14.3942 19.5922C13.7402 19.5922 13.1213 18.655 12.5552 16.8067C12.0194 15.0583 11.6036 12.7105 11.3846 10.1962C11.1653 7.68254 11.1686 5.29784 11.3939 3.48194C11.639 1.50314 12.1061 0.469937 12.782 0.410537C12.8021 0.408737 12.8228 0.407837 12.8432 0.407837C13.3178 0.407837 14.0327 0.945137 14.7647 3.44744L14.2868 3.53984C14.0423 2.70344 13.7759 2.02334 13.5116 1.55594C13.2671 1.12364 13.0292 0.885437 12.8417 0.885437C12.8354 0.885437 12.8294 0.885437 12.8231 0.886337C12.53 0.912137 12.1034 1.62284 11.8655 3.54074C11.6444 5.32394 11.6417 7.67264 11.858 10.1542C12.0743 12.6361 12.4835 14.9488 13.0097 16.666C13.2455 17.4352 13.5038 18.0688 13.7573 18.499C13.991 18.8956 14.2169 19.114 14.3939 19.114C14.3999 19.114 14.4059 19.114 14.4122 19.1131C14.6924 19.0885 15.2207 18.349 15.443 15.7471L15.9344 15.5785" fill="#EE6723"/>
</g>
<defs>
<clipPath id="clip0_17_542">
<rect width="24" height="19.1844" fill="white" transform="translate(0 0.407837)"/>
</clipPath>
</defs>
</svg>
