<svg width="24" height="24" viewBox="0 0 24 24" fill="none" xmlns="http://www.w3.org/2000/svg">
<g clip-path="url(#clip0_17_608)">
<path d="M12 24C18.6274 24 24 18.6274 24 12C24 5.37258 18.6274 0 12 0C5.37258 0 0 5.37258 0 12C0 18.6274 5.37258 24 12 24Z" fill="#6E64C3"/>
<path d="M18.9942 6.0658L15.6826 4.72766L9.84951 10.3799L6.32531 7.70638L4.98853 8.37477L5.00568 15.4376L13.4774 23.9093C19.4077 23.1811 23.9999 18.1271 23.9999 11.9999C23.9999 11.6743 23.9865 11.3518 23.961 11.0327L18.9942 6.0658Z" fill="#5046AF"/>
<path d="M18.9942 6.0658L15.6826 4.72766L9.84951 10.3799L6.32531 7.70638L4.98853 8.37477L5.00568 15.4376L6.34246 16.106L9.86667 13.4325L15.6998 19.0847L19.0113 17.7466L18.9942 6.0658ZM6.67668 13.4021V10.4103L8.33048 11.9062H8.34763L6.67668 13.4021ZM15.3504 14.3971L12.0257 11.9062H12.0085L15.3504 9.4153V14.3971Z" fill="white"/>
</g>
<defs>
<clipPath id="clip0_17_608">
<rect width="24" height="24" fill="white"/>
</clipPath>
</defs>
</svg>
