<svg width="30" height="22" viewBox="0 0 30 22" fill="none" xmlns="http://www.w3.org/2000/svg">
<g clip-path="url(#clip0_7_242)">
<path d="M25.6013 12.6386C24.5612 12.6443 23.6605 12.8906 22.9052 13.2574C22.6263 12.7131 22.3474 12.2375 22.3009 11.8824C22.2487 11.4699 22.1847 11.2177 22.2487 10.7251C22.3125 10.2323 22.603 9.53334 22.603 9.47605C22.5972 9.42449 22.5391 9.17241 21.9406 9.16668C21.3422 9.16095 20.825 9.28126 20.7669 9.43595C20.7088 9.59063 20.5926 9.94584 20.5171 10.3125C20.4125 10.8511 19.3201 12.7589 18.6984 13.7615C18.495 13.3719 18.3207 13.0281 18.2858 12.7531C18.2335 12.3406 18.1696 12.0885 18.2335 11.5958C18.2974 11.1031 18.588 10.4042 18.588 10.3469C18.5822 10.2953 18.5241 10.0432 17.9256 10.0375C17.3271 10.0318 16.81 10.1521 16.7519 10.3068C16.6938 10.4615 16.6299 10.8281 16.5021 11.1833C16.38 11.5386 14.9273 14.724 14.5497 15.5547C14.3579 15.9787 14.1895 16.3167 14.0674 16.5458C13.9454 16.775 14.0616 16.563 14.05 16.5859C13.9454 16.7807 13.8873 16.8896 13.8873 16.8896V16.8954C13.8059 17.0386 13.7188 17.1761 13.678 17.1761C13.649 17.1761 13.5909 16.7922 13.6896 16.2652C13.9046 15.1594 14.4276 13.435 14.4218 13.3719C14.4218 13.3433 14.5205 13.0396 14.0848 12.885C13.6606 12.7303 13.5096 12.9881 13.4747 12.9881C13.4398 12.9881 13.4107 13.0798 13.4107 13.0798C13.4107 13.0798 13.8814 11.1376 12.5101 11.1376C11.6502 11.1376 10.4648 12.06 9.87795 12.9022C9.50607 13.1027 8.71584 13.5266 7.87913 13.9793C7.55955 14.1512 7.22835 14.3345 6.91458 14.5006L6.85073 14.4318C5.18892 12.6844 2.11516 11.4469 2.24299 9.09793C2.28947 8.24428 2.59162 5.99272 8.14653 3.26563C12.6962 1.03126 16.3394 1.64428 16.9726 3.00782C17.8733 4.95574 15.0261 8.57657 10.2964 9.09793C8.49516 9.29845 7.54799 8.61095 7.30982 8.35313C7.05996 8.08386 7.0251 8.07241 6.93213 8.12397C6.78106 8.20418 6.87403 8.4448 6.93213 8.58803C7.07158 8.94897 7.65264 9.59063 8.64042 9.91147C9.50613 10.1922 11.6212 10.3469 14.1778 9.37293C17.0424 8.27866 19.2795 5.2422 18.6229 2.70418C17.9547 0.120322 13.6084 -0.727595 9.50038 0.710426C7.05409 1.5698 4.4045 2.91043 2.49865 4.66928C0.23255 6.7547 -0.127702 8.57657 0.023371 9.33282C0.552186 12.0313 4.32315 13.7901 5.83389 15.0906C5.75835 15.1307 5.68862 15.1708 5.62471 15.2052C4.86934 15.5718 1.99314 17.0557 1.27263 18.6255C0.45916 20.4015 1.40046 21.6792 2.028 21.8511C3.96871 22.3839 5.95591 21.4271 7.03085 19.8516C8.09993 18.2761 7.97216 16.2307 7.47826 15.2969L7.46077 15.2625L8.05344 14.9188C8.437 14.6953 8.81468 14.4891 9.14582 14.3114C8.95994 14.8098 8.82624 15.4 8.75658 16.2593C8.67523 17.2677 9.09359 18.5739 9.64559 19.0895C9.88963 19.3129 10.1802 19.3187 10.3603 19.3187C10.9994 19.3187 11.29 18.7973 11.6095 18.1729C12.0047 17.4109 12.3533 16.5286 12.3533 16.5286C12.3533 16.5286 11.9175 18.9177 13.1087 18.9177C13.5444 18.9177 13.9802 18.3619 14.1778 18.0755V18.0812C14.1778 18.0812 14.1894 18.064 14.2127 18.0239C14.237 17.9884 14.2603 17.9521 14.2824 17.9151V17.9037C14.4567 17.6057 14.846 16.924 15.427 15.7953C16.1765 14.3401 16.8971 12.5182 16.8971 12.5182C16.8971 12.5182 16.9668 12.9651 17.1818 13.6984C17.3096 14.1339 17.5885 14.6094 17.8035 15.0734C17.6292 15.3141 17.5246 15.4516 17.5246 15.4516L17.5304 15.4574C17.391 15.6407 17.2341 15.8355 17.0714 16.0303C16.4788 16.7292 15.7699 17.5256 15.6769 17.7548C15.5665 18.024 15.5897 18.2245 15.8047 18.385C15.9616 18.4996 16.2405 18.5225 16.5369 18.4996C17.0714 18.4652 17.4433 18.3335 17.6292 18.2532C17.9198 18.1501 18.251 17.9954 18.5705 17.7662C19.1516 17.3423 19.506 16.7408 19.4712 15.9387C19.4537 15.4975 19.3085 15.0621 19.1283 14.6496C19.1806 14.5751 19.233 14.5006 19.2852 14.4204C20.2033 13.0969 20.9122 11.6418 20.9122 11.6418C20.9122 11.6418 20.9819 12.0887 21.1969 12.822C21.3072 13.1944 21.5281 13.6012 21.7256 14.0023C20.8657 14.6955 20.3253 15.4976 20.1394 16.0247C19.7966 16.9986 20.0638 17.4398 20.5694 17.5429C20.7959 17.5887 21.1214 17.4856 21.3653 17.3825C21.6675 17.2851 22.0335 17.1189 22.3706 16.8726C22.9517 16.4486 23.5095 15.8585 23.4804 15.0622C23.463 14.6955 23.3642 14.3346 23.2306 13.9908C23.9627 13.6929 24.9097 13.521 26.1126 13.6642C28.6983 13.9622 29.2096 15.5549 29.1109 16.2195C29.0121 16.8841 28.4717 17.2507 28.2915 17.3653C28.1114 17.4741 28.0533 17.5143 28.0707 17.5945C28.094 17.7148 28.1753 17.709 28.3322 17.6862C28.5472 17.6517 29.6919 17.1419 29.7383 15.9159C29.8081 14.3402 28.2915 12.6214 25.6013 12.6386ZM5.65957 19.2672C4.80543 20.1896 3.60265 20.5391 3.09132 20.2412C2.53932 19.9261 2.75426 18.5682 3.80602 17.5886C4.44517 16.9927 5.27608 16.4427 5.82227 16.1047C5.94429 16.0302 6.13022 15.9214 6.35102 15.7896C6.38589 15.7667 6.40913 15.7552 6.40913 15.7552C6.4498 15.7323 6.49628 15.7037 6.54277 15.675C6.93207 17.0729 6.5602 18.299 5.65957 19.2672ZM11.9059 15.0792C11.6095 15.7953 10.982 17.6344 10.6043 17.5313C10.2789 17.4453 10.0814 16.0531 10.5403 14.6781C10.7728 13.9848 11.2667 13.1599 11.5572 12.839C12.0279 12.3234 12.5392 12.1515 12.6671 12.3635C12.8181 12.6386 12.0918 14.6323 11.9059 15.0792ZM17.0598 17.5083C16.932 17.5714 16.8158 17.6172 16.7635 17.5829C16.7228 17.56 16.8157 17.474 16.8157 17.474C16.8157 17.474 17.4607 16.7923 17.7163 16.4772C17.8616 16.2939 18.0359 16.0819 18.2218 15.8412V15.91C18.2219 16.7349 17.4201 17.2849 17.0598 17.5083ZM21.0341 16.6146C20.9412 16.5458 20.9528 16.3339 21.2666 15.6693C21.3886 15.4057 21.6675 14.9646 22.1498 14.5464C22.2079 14.7182 22.2428 14.8843 22.2369 15.0391C22.2312 16.0703 21.4874 16.4542 21.0341 16.6146Z" fill="#CF649A"/>
</g>
<defs>
<clipPath id="clip0_7_242">
<rect width="29.7498" height="22" fill="white"/>
</clipPath>
</defs>
</svg>
