<svg width="26" height="24" viewBox="0 0 26 24" fill="none" xmlns="http://www.w3.org/2000/svg">
<path d="M1.93017 9.34045L0.526064 13.6545C0.398894 14.0463 0.536242 14.4787 0.872002 14.7229L13.0054 23.5393L9.12196 15.9131L1.93017 9.34045Z" fill="#FFA100"/>
<path d="M24.0807 9.34045L25.4848 13.6545C25.612 14.0463 25.4746 14.4787 25.1389 14.7229L13.0055 23.5393L17.2728 14.4943L24.0807 9.34045Z" fill="#FFA100"/>
<path d="M13.0054 23.5394L13.0054 14.8004L8.39114 9.34049L5.1632 7.7345L1.93018 9.34049L13.0054 23.5394Z" fill="#FF6D18"/>
<path d="M13.0055 23.5394L13.0055 14.2718L17.6198 9.34049L21.1118 7.7345L24.0807 9.34049L13.0055 23.5394Z" fill="#FF6D18"/>
<path d="M13.0055 23.5392L17.6197 9.34033H8.39124L13.0055 23.5392Z" fill="#FC3819"/>
<path d="M1.93018 9.34058H8.39623L5.61341 0.788723C5.47097 0.351187 4.85029 0.351187 4.70277 0.788723L1.93018 9.34058Z" fill="#FC3819"/>
<path d="M24.0807 9.34058H17.6146L20.3924 0.788723C20.5348 0.351187 21.1555 0.351187 21.303 0.788723L24.0807 9.34058Z" fill="#FC3819"/>
</svg>
