<svg width="30" height="24" viewBox="0 0 30 24" fill="none" xmlns="http://www.w3.org/2000/svg">
<g clip-path="url(#clip0_7_248)">
<path fill-rule="evenodd" clip-rule="evenodd" d="M6.23109 0.0032959C4.51934 0.0032959 3.25271 1.50756 3.30943 3.13889C3.36387 4.70615 3.29314 6.73599 2.7842 8.39132C2.27344 10.0513 1.41023 11.1032 0 11.2382V12.7626C1.41023 12.8979 2.27344 13.9493 2.78414 15.6095C3.29314 17.2649 3.36381 19.2947 3.30938 20.862C3.25266 22.4931 4.51928 23.9976 6.23133 23.9976H23.7712C25.483 23.9976 26.7493 22.4933 26.6926 20.862C26.6382 19.2947 26.7089 17.2649 27.2179 15.6095C27.7286 13.9493 28.5897 12.8975 30 12.7626V11.2382C28.5898 11.1029 27.7287 10.0515 27.2179 8.39132C26.7088 6.73622 26.6382 4.70615 26.6926 3.13889C26.7493 1.50779 25.483 0.0032959 23.7712 0.0032959H6.23086H6.23109ZM20.339 14.7733C20.339 17.0196 18.6702 18.3819 15.9008 18.3819H11.1864C11.0516 18.3819 10.9222 18.3281 10.8269 18.2324C10.7315 18.1366 10.6779 18.0068 10.6779 17.8714V6.12952C10.6779 5.99412 10.7315 5.86427 10.8269 5.76853C10.9222 5.67279 11.0516 5.619 11.1864 5.619H15.8739C18.1832 5.619 19.6987 6.87488 19.6987 8.80307C19.6987 10.1564 18.6792 11.368 17.3803 11.5803V11.6509C19.1484 11.8456 20.339 13.0751 20.339 14.7733ZM15.3867 7.23733H12.6987V11.0495H14.9627C16.7129 11.0495 17.6779 10.3419 17.6779 9.07709C17.6777 7.8918 16.848 7.23733 15.3867 7.23733ZM12.6987 12.562V16.7631H15.4856C17.3079 16.7631 18.2731 16.0289 18.2731 14.6493C18.2731 13.2696 17.2808 12.5618 15.3684 12.5618H12.6987V12.562Z" fill="#7952B3"/>
</g>
<defs>
<clipPath id="clip0_7_248">
<rect width="30" height="24" fill="white"/>
</clipPath>
</defs>
</svg>
