<svg width="23" height="24" viewBox="0 0 23 24" fill="none" xmlns="http://www.w3.org/2000/svg">
<path d="M4.92756 3.67119C3.6421 5.73587 3.80221 8.42184 4.78157 10.6131L4.85359 10.7693L4.90225 10.8681C4.91125 10.8873 4.92172 10.9062 4.93096 10.9249C4.948 10.9596 4.96503 10.993 4.97963 11.0272L5.0733 11.2069L5.12684 11.3057L5.2356 11.4958L5.28426 11.5759C5.33293 11.6613 5.38792 11.7462 5.44193 11.83C5.44315 11.8322 5.44485 11.8346 5.44631 11.8367C5.45483 11.8501 5.46432 11.8634 5.47064 11.8768C5.51736 11.9489 5.56797 12.0199 5.61664 12.0904L5.67065 12.1673L5.80326 12.3494L5.85387 12.4172C5.91419 12.4971 5.97584 12.5758 6.03879 12.6532L6.04269 12.6575C6.04512 12.6609 6.04755 12.6628 6.04999 12.6663C6.11098 12.7418 6.17362 12.8157 6.23783 12.8879L6.29817 12.9557L6.4483 13.1202L6.50962 13.1853C6.57708 13.2563 6.64563 13.3259 6.71522 13.3944L6.75415 13.4318L6.94078 13.608L7.01815 13.6769L7.17388 13.8104L7.25709 13.8811L7.49506 14.072C7.50114 14.0765 7.50649 14.0814 7.51257 14.0859C7.56854 14.1286 7.62523 14.17 7.68217 14.2114L7.75565 14.2661L8.02135 14.4477L8.09484 14.4939L8.29436 14.6188C8.33086 14.6407 8.36808 14.6615 8.40458 14.6824L8.54717 14.7625L8.58001 14.7801L8.63841 14.8116L8.8647 14.9285L8.91263 14.9552C8.99988 14.9978 9.08781 15.0387 9.17639 15.0778L9.24062 15.1061L9.48954 15.2091L9.52069 15.2214C9.6126 15.257 9.70508 15.2908 9.79807 15.3229L9.86498 15.3453C9.96231 15.3773 10.0536 15.4155 10.1514 15.4361C16.3677 16.7059 18.1738 11.264 18.1738 11.264C16.6572 13.4721 13.9654 14.0541 11.4149 13.4061C11.3183 13.3794 11.2246 13.3482 11.1302 13.3169L11.0592 13.2902C10.9672 13.2587 10.8757 13.2254 10.7852 13.1907L10.7475 13.1754C10.6665 13.1434 10.586 13.11 10.5059 13.0753L10.4378 13.0454C10.3501 13.0068 10.2632 12.9664 10.1769 12.9242L10.1248 12.8986L9.90489 12.7838L9.84162 12.7496C9.78447 12.7181 9.7277 12.6858 9.6713 12.6527L9.55767 12.5859C9.48901 12.5446 9.42103 12.502 9.35377 12.458L9.28491 12.4153C9.19537 12.3566 9.1068 12.2952 9.01921 12.2337C8.99487 12.2164 8.97151 12.198 8.94743 12.1803L8.75837 12.0399L8.69754 11.9918L8.5187 11.8477L8.43938 11.7809L8.27806 11.6399L8.20603 11.5759L8.0053 11.389C7.99848 11.3823 7.9907 11.3756 7.98096 11.3684C7.90943 11.2982 7.83911 11.2261 7.76976 11.1537L7.71039 11.0897L7.55856 10.9236L7.49919 10.8568C7.43595 10.7847 7.3739 10.7114 7.31305 10.6368C7.31013 10.6331 7.30673 10.6296 7.30381 10.6262C7.2395 10.5474 7.17655 10.4673 7.11499 10.3859L7.0656 10.3202L6.92934 10.1325L6.87946 10.0631L6.72252 9.82945C5.3064 7.67079 4.8003 4.69378 5.9293 2.24864L4.92756 3.67119ZM8.91798 1.93145C7.98851 3.42662 8.03887 5.42749 8.76396 7.00864C8.88525 7.27413 9.02262 7.5304 9.17517 7.77571C9.31435 7.99866 9.46886 8.26432 9.65378 8.4432C9.72069 8.5233 9.79077 8.6034 9.8623 8.6851C9.88031 8.70566 9.8988 8.72515 9.91729 8.74571C9.98672 8.82134 10.0578 8.89515 10.1304 8.96705C10.1334 8.96972 10.136 8.97292 10.1392 8.97559C10.221 9.05536 10.3046 9.13282 10.3901 9.20788L10.4465 9.25701C10.5316 9.33037 10.6184 9.40123 10.7069 9.46954C10.7092 9.47167 10.7117 9.47371 10.7142 9.47568C10.7531 9.50585 10.7932 9.53442 10.8329 9.56325C10.8519 9.57714 10.8699 9.59182 10.8889 9.6049C10.9523 9.65048 11.0166 9.69454 11.0818 9.73707L11.1091 9.75469L11.2794 9.86149C11.2993 9.87403 11.3198 9.88498 11.3402 9.89673L11.4619 9.96561C11.468 9.96908 11.474 9.97175 11.4799 9.97496C11.5619 10.0203 11.6444 10.0631 11.7288 10.1045C11.7468 10.1133 11.7653 10.1213 11.7838 10.1298C11.8512 10.1619 11.9193 10.1928 11.9882 10.2225L12.0758 10.2582C12.1379 10.2836 12.2003 10.3079 12.2631 10.3311L12.3478 10.3613C12.4371 10.3925 12.5254 10.4315 12.6186 10.4489C17.4181 11.3374 18.5264 7.20755 18.5264 7.20755C17.5276 8.81486 15.5934 9.58221 13.5291 8.9836C13.4378 8.95698 13.3472 8.9276 13.2573 8.8955C13.2298 8.88615 13.2028 8.87627 13.1756 8.8688C13.1118 8.8457 13.0485 8.82131 12.9855 8.79564L12.8997 8.75986C12.8308 8.73316 12.7627 8.69979 12.6953 8.66775C12.6768 8.65894 12.6583 8.65093 12.64 8.64158C12.5554 8.60092 12.4718 8.55756 12.3894 8.51155C12.3471 8.48833 12.3055 8.46403 12.2639 8.44L12.1914 8.39835C12.1378 8.36607 12.0849 8.33269 12.0325 8.29823L11.9945 8.27153C11.9297 8.22903 11.8656 8.18523 11.8023 8.14016C11.7828 8.12628 11.7638 8.11346 11.7444 8.09691L11.6198 8.0048C11.5318 7.93644 11.4453 7.86575 11.3604 7.7928L11.302 7.74154C10.3986 6.94429 9.68225 5.85495 9.34185 4.61956C8.9849 3.33798 9.06203 1.90021 9.68249 0.73317L8.91798 1.93145ZM12.2733 0.631712C11.7254 1.53309 11.6716 2.65234 12.0544 3.6477C12.4554 4.7042 13.277 5.53322 14.236 5.92597C14.2754 5.94252 14.315 5.95721 14.3576 5.97216L14.4102 5.99085C14.4666 6.01061 14.5228 6.03357 14.581 6.04585C17.2312 6.61802 17.95 4.52611 18.1412 4.21826C17.5115 5.23151 16.4533 5.47475 15.155 5.12258C15.0528 5.09454 14.9396 5.05316 14.8387 5.01418C14.7116 4.96373 14.5871 4.90589 14.4657 4.8409C14.2346 4.71656 14.0155 4.5671 13.8116 4.39475C12.6473 3.40953 11.9254 1.53042 12.6836 0" fill="#0868AC"/>
<path d="M6.42058 19.7657L6.24101 20.4642L6.42058 19.766V19.7657ZM7.34422 21.2817L7.1464 21.2804L7.34422 21.2817ZM7.29556 22.3246L6.11011 22.3294L7.29556 22.3246ZM7.54374 21.2833L7.34568 21.282L7.54374 21.2833ZM7.40213 22.236L7.60895 21.3717L7.40213 22.236ZM11.7648 18.2559L11.3804 20.2404L11.7648 18.2559ZM10.7757 18.2559L10.4838 19.7385L10.7757 18.2559Z" fill="#131B28"/>
<path d="M11.6967 18.1665H10.8743C10.8286 18.1665 10.7833 18.2066 10.7736 18.2557L10.1896 21.2212C10.1799 21.2701 10.1346 21.3101 10.0891 21.3101H9.50684C8.93067 21.3101 8.99734 20.8731 9.11754 20.2742L9.12118 20.256L9.19102 19.8475L9.22119 19.6793L9.48689 18.2557C9.49614 18.2066 9.46621 18.1663 9.42047 18.1663H8.57615C8.55288 18.1671 8.5305 18.1763 8.51241 18.1924C8.49432 18.2085 8.4815 18.2306 8.4759 18.2554L8.0956 20.2349C7.88634 21.2826 7.94182 22.2817 9.0786 22.313L9.11145 22.3138H10.8955C10.9412 22.3138 10.9862 22.2737 10.996 22.2246L11.7653 18.2554C11.7751 18.2063 11.7451 18.1663 11.6996 18.1663L11.6967 18.1665ZM14.9784 21.3205C15.0241 21.3205 15.0513 21.3606 15.0448 21.4097L14.965 21.8383L14.9784 21.3205ZM14.8852 22.267L14.965 21.8383L14.8852 22.267ZM14.7849 22.3573L13.269 22.3653L14.7849 22.3573Z" fill="#131B28"/>
<path d="M12.778 20.7688C12.7772 20.7218 12.8259 20.6412 12.8716 20.6412L12.769 20.6393C12.7203 21.1503 12.778 20.7688 12.778 20.7688ZM13.3439 22.3649H13.3281H13.3439ZM14.9783 21.3204C15.024 21.3204 15.0513 21.3604 15.0447 21.4096L14.9518 21.9078L14.9783 21.3204ZM13.7332 22.3662H13.7298H13.7332ZM13.5313 22.3646H13.5196H13.5313ZM13.4697 22.3649H13.4503H13.4697ZM13.4096 22.3649H13.3926H13.4096ZM13.522 22.3646H13.4722H13.522Z" fill="#131B28"/>
<path d="M13.7301 22.3663L13.5315 22.3671L13.7301 22.3663ZM14.7853 22.3596L13.733 22.3665L14.7853 22.3596ZM14.8827 22.267L14.9496 21.9081L14.8827 22.2672V22.267ZM13.4481 22.3649H13.4096H13.4529H13.4481ZM13.3276 22.3649H13.2692H13.3276ZM13.3902 22.3649H13.3415H13.3902ZM1.35562 20.7795L1.48336 20.158L1.33737 20.8682L1.32034 20.9573L1.35586 20.779L1.35562 20.7795ZM2.88512 18.1563H1.98168C1.95834 18.1573 1.9359 18.1665 1.91764 18.1825C1.89939 18.1985 1.88627 18.2204 1.88022 18.2452L1.70892 19.0729C1.70604 19.0836 1.70556 19.0949 1.70752 19.1059C1.70948 19.1168 1.71382 19.1271 1.72017 19.1358C1.72652 19.1446 1.7347 19.1515 1.74401 19.156C1.75332 19.1605 1.76348 19.1625 1.77364 19.1618H2.68414C2.72988 19.1618 2.77514 19.1217 2.78487 19.0729L2.95033 18.2433C2.96006 18.1945 2.93087 18.1544 2.88464 18.1544L2.88512 18.1563ZM2.68852 19.5361L2.42087 20.8812L2.68852 19.5361ZM0.0640861 23.9936L0.809128 24C0.589168 24 0.225893 23.9955 0.0638428 23.9933L0.0640861 23.9936Z" fill="#131B28"/>
<path d="M1.60869 19.5362L1.4807 20.1577L1.60869 19.5362ZM2.62333 19.4472H1.71259C1.68924 19.4483 1.6668 19.4574 1.64855 19.4734C1.63029 19.4894 1.61718 19.5114 1.61112 19.5362L1.35564 20.7793L1.32011 20.9576L1.07679 22.2267C1.06474 22.2859 1.05012 22.3444 1.033 22.4021C1.033 22.4021 0.862674 22.9574 0.577018 22.9513L0.293551 22.9454C0.2703 22.9461 0.247862 22.955 0.229487 22.9706C0.211113 22.9863 0.197758 23.0079 0.191357 23.0325L0.00278527 23.9037C-0.000193977 23.9143 -0.000793687 23.9256 0.0010368 23.9366C0.00286729 23.9475 0.0070742 23.9578 0.0133022 23.9666C0.0195302 23.9754 0.0275963 23.9825 0.0368191 23.9871C0.046042 23.9918 0.0561508 23.9939 0.0662915 23.9934L0.811577 24.0001C1.52596 24.0001 1.90237 23.5657 2.14399 22.3161L2.69146 19.5394C2.70119 19.4905 2.67151 19.4505 2.62576 19.4505L2.62333 19.4472ZM15.5586 22.3143C15.5129 22.3143 15.4856 22.2742 15.4929 22.2251L16.1779 18.7045L15.5586 22.3143ZM16.5105 22.2248L16.7879 20.7222L16.5105 22.2248Z" fill="#131B28"/>
<path d="M15.5029 22.2696C15.4973 22.2451 15.5005 22.185 15.5102 22.1361L15.8353 20.4647L15.4927 22.225C15.483 22.2742 15.5126 22.3142 15.5584 22.3142H15.6416C15.5959 22.3142 15.5083 22.2942 15.5029 22.2696ZM16.4567 22.2942C16.4319 22.3049 16.374 22.3142 16.3282 22.3142H16.4115C16.4347 22.3132 16.457 22.3039 16.475 22.2878C16.493 22.2717 16.5057 22.2495 16.5112 22.2248L16.5278 22.1356C16.5188 22.1847 16.4791 22.2832 16.4548 22.2942H16.4567ZM16.6489 21.4734L16.7713 20.8102L16.6489 21.4734ZM19.3517 18.9402L19.3894 19.1111C19.3999 19.1599 19.371 19.1997 19.3254 19.2" fill="#131B28"/>
<path d="M16.527 22.1356L16.6487 21.4734L16.527 22.1356ZM19.3145 18.7618L19.3517 18.937L19.3145 18.7618ZM16.7713 20.8102L16.8049 20.6329L16.9356 19.9614L16.7876 20.7218L16.7713 20.81V20.8102ZM16.1891 18.6465L16.1606 18.7933L15.8355 20.4647L16.1781 18.7044L16.1891 18.6468V18.6465Z" fill="#131B28"/>
<path d="M19.3897 19.111L19.352 18.9402L19.296 18.6732C19.2221 18.3581 19.005 18.1758 18.5335 18.1758L16.3631 18.1742C16.3398 18.175 16.3174 18.1842 16.2993 18.2003C16.2812 18.2164 16.2684 18.2385 16.2628 18.2633L16.2292 18.4377L16.1806 18.7012L15.5129 22.1329C15.5032 22.182 15.5 22.2397 15.5056 22.2664C15.5112 22.2931 15.5988 22.311 15.6443 22.311H16.3305C16.3762 22.311 16.4339 22.3019 16.4589 22.291C16.484 22.28 16.5207 22.1842 16.5319 22.1324L16.7923 20.7189L17.0709 19.2867C17.0806 19.2379 17.1256 19.1981 17.1711 19.1978L19.3301 19.1968C19.3756 19.1968 19.4046 19.1567 19.3941 19.1078L19.3897 19.111ZM22.1691 17.5643L22.003 17.5651H21.3119C21.2866 17.5668 21.2619 17.5744 21.2395 17.5874C21.2171 17.6003 21.1975 17.6184 21.182 17.6404L19.654 20.0968C19.6282 20.1382 19.5987 20.132 19.5883 20.0834L19.4758 19.5422C19.4698 19.5175 19.4567 19.4955 19.4384 19.4795C19.4202 19.4635 19.3977 19.4543 19.3744 19.4533H18.3921C18.3464 19.4533 18.3191 19.4926 18.3318 19.5409L18.7697 21.2331C18.7824 21.2812 18.7831 21.3605 18.7722 21.4093L18.5775 22.2282C18.5742 22.2387 18.5733 22.25 18.575 22.2609C18.5766 22.2719 18.5807 22.2822 18.5869 22.291C18.5932 22.2998 18.6013 22.3067 18.6105 22.3112C18.6198 22.3157 18.63 22.3175 18.64 22.3166H19.6133C19.6591 22.3166 19.7058 22.2765 19.717 22.2285L19.9116 21.4096C19.9269 21.352 19.9507 21.2975 19.9822 21.2483L22.4655 17.6351C22.493 17.595 22.4782 17.5625 22.4324 17.563L22.1721 17.5649L22.1691 17.5643ZM14.3644 19.6835C14.3586 19.7369 14.3129 19.7769 14.2671 19.7769H13.0213C12.9783 19.7769 12.9564 19.7449 12.9629 19.7048L12.9639 19.6976L12.9695 19.6744C13.0912 19.3273 13.3308 19.0996 13.7861 19.0996C14.2988 19.0996 14.3988 19.3746 14.364 19.6835H14.3644ZM13.999 18.1061C12.4004 18.1061 12.0215 19.1709 11.8091 20.2455C11.5965 21.341 11.6149 22.3655 13.269 22.3655H13.5313L13.7333 22.3647L14.7859 22.3577C14.809 22.3565 14.8311 22.3472 14.849 22.3311C14.8668 22.3149 14.8794 22.2929 14.8849 22.2683L15.0448 21.4107C15.054 21.3616 15.0241 21.3215 14.9783 21.3215H13.4912C12.8999 21.3215 12.724 21.149 12.7887 20.642H15.1659C15.2049 20.6412 15.2402 20.6153 15.254 20.5747C15.2565 20.5675 15.2589 20.5598 15.2599 20.552C15.6127 19.0916 15.5115 18.1071 13.9995 18.1071L13.999 18.1061ZM6.44296 19.6776L6.42058 19.7649C6.42058 19.7652 6.24101 20.4634 6.24101 20.4634L6.06144 21.1613C6.05398 21.1859 6.03989 21.2075 6.02104 21.2231C6.00218 21.2387 5.97945 21.2477 5.95584 21.2489H5.00544C4.28473 21.2489 4.10929 20.6303 4.28473 19.7179C4.45992 18.7848 4.80421 18.2046 5.51349 18.1459C6.48287 18.0658 6.67655 18.8139 6.44296 19.6773V19.6776ZM7.09457 21.1955C7.09457 21.1955 7.54228 20.002 7.64447 19.3124C7.78316 18.3894 7.36222 17.0509 5.73564 17.0509C4.1183 17.0509 3.41608 18.3287 3.14818 19.7209C2.88053 21.1199 3.2314 22.347 4.83925 22.3374L7.29336 22.3275C7.31689 22.3263 7.3395 22.3171 7.3581 22.3013C7.37669 22.2854 7.39037 22.2636 7.39726 22.2389L7.60408 21.3744C7.60743 21.3639 7.60834 21.3527 7.60674 21.3417C7.60514 21.3308 7.60108 21.3204 7.59492 21.3116C7.58876 21.3028 7.5807 21.2958 7.57147 21.2913C7.56223 21.2868 7.55212 21.2849 7.54203 21.2857L7.14615 21.2831C7.10722 21.2828 7.08533 21.2553 7.0897 21.219C7.09068 21.2123 7.09214 21.2056 7.09457 21.1987V21.1955Z" fill="#131B28"/>
<path d="M15.1012 20.3972C15.1012 20.4305 15.0768 20.4573 15.0464 20.4573C15.0161 20.4573 14.9917 20.4305 14.9917 20.3972C14.9917 20.364 15.0161 20.3372 15.0464 20.3372C15.0768 20.3372 15.1012 20.364 15.1012 20.3972Z" fill="#131B28"/>
</svg>
