<svg width="24" height="16" viewBox="0 0 24 16" fill="none" xmlns="http://www.w3.org/2000/svg">
<g clip-path="url(#clip0_17_535)">
<path d="M12 0.740601C8.80003 0.740601 6.79997 2.35382 6 5.58015C7.2 3.96694 8.59997 3.36199 10.2 3.76532C11.1128 3.99539 11.7653 4.66319 12.4876 5.40226C13.6642 6.60639 15.0258 7.99993 18 7.99993C21.2 7.99993 23.2 6.38672 24 3.16038C22.8 4.77359 21.4 5.37854 19.8 4.97521C18.8872 4.74514 18.2347 4.07734 17.5124 3.33827C16.3358 2.13415 14.9742 0.740601 12 0.740601ZM6 7.99993C2.80003 7.99993 0.799969 9.61315 0 12.8395C1.2 11.2263 2.59997 10.6213 4.2 11.0247C5.11284 11.2547 5.76534 11.9225 6.48759 12.6616C7.66416 13.8657 9.02578 15.2593 12 15.2593C15.2 15.2593 17.2 13.646 18 10.4197C16.8 12.0329 15.4 12.6379 13.8 12.2345C12.8872 12.0045 12.2347 11.3367 11.5124 10.5976C10.3358 9.39348 8.97422 7.99993 6 7.99993Z" fill="url(#paint0_linear_17_535)"/>
</g>
<defs>
<linearGradient id="paint0_linear_17_535" x1="-0.66672" y1="5.38657" x2="20.1457" y2="17.2886" gradientUnits="userSpaceOnUse">
<stop stop-color="#2298BD"/>
<stop offset="1" stop-color="#0ED7B5"/>
</linearGradient>
<clipPath id="clip0_17_535">
<rect width="24" height="14.5574" fill="white" transform="translate(0 0.721313)"/>
</clipPath>
</defs>
</svg>
