<svg width="24" height="24" viewBox="0 0 24 24" fill="none" xmlns="http://www.w3.org/2000/svg">
<g clip-path="url(#clip0_7_200)">
<path d="M4.248 0.302368H19.7472C22.0992 0.302368 23.9952 2.20317 23.9952 4.55037V19.4496C23.9952 21.8016 22.0944 23.6976 19.7472 23.6976H4.248C1.896 23.6976 0 21.7968 0 19.4496V4.55037C0 2.19837 1.9008 0.302368 4.248 0.302368Z" fill="#470137"/>
<path d="M12.6192 6.45129L9.61919 11.4001L12.8208 16.6513C12.84 16.6897 12.8496 16.7329 12.84 16.7713C12.8304 16.8097 12.792 16.7809 12.7296 16.7905H10.44C10.2816 16.7905 10.1712 16.7809 10.0992 16.6801C9.88799 16.2577 9.66719 15.8497 9.46079 15.4321C9.24959 15.0241 9.01919 14.6017 8.77919 14.1697C8.53919 13.7377 8.29919 13.3105 8.05919 12.8689H8.03999C7.82879 13.3009 7.59839 13.7281 7.36799 14.1601C7.13759 14.5921 6.90719 15.0193 6.68639 15.4417C6.45599 15.8641 6.22559 16.2913 5.99519 16.7041C5.95679 16.8049 5.87519 16.8145 5.76479 16.8145H3.57119C3.53279 16.8145 3.49919 16.8337 3.49919 16.7857C3.48959 16.7473 3.49919 16.7041 3.51839 16.6753L6.62879 11.5681L3.59999 6.44169C3.57119 6.40329 3.56159 6.36009 3.58079 6.34089C3.59999 6.31209 3.64319 6.30249 3.68159 6.30249H5.95199C5.99999 6.30249 6.05279 6.31209 6.09119 6.32169C6.12959 6.34089 6.16319 6.36969 6.19199 6.41289C6.38399 6.84489 6.59999 7.27209 6.83039 7.70409C7.07039 8.13609 7.30079 8.55369 7.55039 8.97609C7.79039 9.39369 8.01119 9.81609 8.22239 10.2481H8.24159C8.45279 9.80649 8.67359 9.37929 8.88959 8.95689C9.11039 8.53929 9.34079 8.11689 9.57119 7.69449C9.80159 7.27689 10.0224 6.84489 10.2432 6.43689C10.2528 6.39849 10.272 6.35529 10.3056 6.33609C10.344 6.31689 10.3872 6.30729 10.4352 6.31689H12.5472C12.5952 6.30729 12.648 6.33609 12.6576 6.38889C12.6624 6.38889 12.6384 6.43209 12.6192 6.45129Z" fill="#FF61F6"/>
<path d="M17.2416 17.0017C16.5024 17.0113 15.7632 16.8625 15.0912 16.5505C14.4624 16.2625 13.9392 15.7825 13.5792 15.1921C13.2096 14.5825 13.0272 13.8241 13.0272 12.9121C13.0176 12.1729 13.2096 11.4433 13.5792 10.8001C13.9584 10.1521 14.5104 9.60965 15.168 9.24965C15.8688 8.86085 16.7088 8.66885 17.6976 8.66885C17.7456 8.66885 17.8176 8.66885 17.9088 8.67845C18 8.68805 18.1008 8.68805 18.2208 8.69765V5.53925C18.2208 5.46725 18.2496 5.42885 18.3216 5.42885H20.352C20.4 5.41925 20.4432 5.45765 20.4528 5.50085C20.4528 5.51045 20.4528 5.52005 20.4528 5.52005V15.0385C20.4528 15.2209 20.4624 15.4177 20.472 15.6385C20.4912 15.8497 20.5008 16.0465 20.5104 16.2193C20.5104 16.2913 20.4816 16.3489 20.4096 16.3777C19.8912 16.5985 19.3392 16.7569 18.7776 16.8577C18.2688 16.9489 17.76 17.0017 17.2416 17.0017ZM18.2208 15.0001V10.5985C18.1296 10.5793 18.0384 10.5601 17.952 10.5505C17.8416 10.5409 17.7312 10.5313 17.6208 10.5313C17.232 10.5313 16.8384 10.6129 16.4928 10.7905C16.152 10.9585 15.864 11.2081 15.6432 11.5297C15.4224 11.8513 15.312 12.2785 15.312 12.8017C15.3024 13.1521 15.36 13.5025 15.48 13.8337C15.5808 14.1025 15.7296 14.3425 15.9312 14.5441C16.1232 14.7265 16.3536 14.8657 16.6128 14.9425C16.8816 15.0337 17.1648 15.0721 17.4432 15.0721C17.592 15.0721 17.7312 15.0625 17.8656 15.0529C17.9904 15.0625 18.1008 15.0385 18.2208 15.0001Z" fill="#FF61F6"/>
</g>
<defs>
<clipPath id="clip0_7_200">
<rect width="24" height="24" fill="white"/>
</clipPath>
</defs>
</svg>
