<svg width="20" height="20" viewBox="0 0 20 20" fill="none" xmlns="http://www.w3.org/2000/svg">
<rect width="20" height="20" rx="8" fill="#5C8099"/>
<path d="M4.4 5.028H15.684V6.512H4.4V5.028ZM3.63 10.95H9.398V12.392H3.63V10.95ZM9.818 10.95H16.398V12.392H9.818V10.95ZM9.076 3.572H10.77V9.914H9.076V3.572ZM5.996 9.438H7.578V16.76H5.996V9.438ZM12.058 9.438H13.64V16.76H12.058V9.438ZM8.558 5.322L9.944 5.854C8.81 7.646 6.878 9.13 4.792 9.9C4.568 9.508 4.092 8.92 3.756 8.612C5.716 8.01 7.62 6.75 8.558 5.322ZM11.134 5.322C12.184 6.708 14.214 7.926 16.314 8.486C15.95 8.808 15.474 9.438 15.236 9.858C13.094 9.102 11.078 7.618 9.888 5.812L11.134 5.322ZM11.764 11.258L12.968 11.594C12.324 13.512 11.19 15.276 9.762 16.228C9.524 15.85 9.062 15.29 8.726 15.01C10.056 14.268 11.19 12.784 11.764 11.258ZM13.836 11.426C14.466 12.742 15.628 14.114 16.762 14.842C16.398 15.15 15.866 15.752 15.586 16.186C14.48 15.22 13.416 13.456 12.8 11.776L13.836 11.426ZM5.926 11.384L7.046 11.804C6.388 13.512 5.38 15.262 4.036 16.13C3.896 15.668 3.56 15.01 3.308 14.562C4.414 13.89 5.422 12.63 5.926 11.384ZM7.368 12.476C7.788 12.7 9.118 13.582 9.44 13.834L8.46 15.066C8.012 14.576 6.99 13.61 6.472 13.176L7.368 12.476Z" fill="white"/>
</svg>
