<svg width="25" height="20" viewBox="0 0 25 20" fill="none" xmlns="http://www.w3.org/2000/svg">
<g clip-path="url(#clip0_16_505)">
<path fill-rule="evenodd" clip-rule="evenodd" d="M7.05518 17.9252C11.4334 20.7386 18.2414 20.6916 22.2194 17.7935C26.1958 14.8953 25.8658 10.2721 21.494 7.48843C19.6971 6.32322 17.4617 5.66141 15.1866 5.47949C16.3393 5.71944 17.4458 6.1068 18.3977 6.64784C22.2896 8.84027 22.5957 12.6903 19.1008 15.2152C15.5867 17.7292 9.56634 17.9832 5.67603 15.7908C4.99364 15.4254 4.4356 14.9863 3.96844 14.5315C4.51213 15.7971 5.53413 16.9654 7.05518 17.9252Z" fill="#808080"/>
<path fill-rule="evenodd" clip-rule="evenodd" d="M1.45246 13.5012C2.44098 13.796 3.71011 13.5671 4.92982 12.9978C4.39251 13.1013 3.87593 13.0966 3.4295 12.9664C1.91643 12.521 1.79844 10.8006 3.13135 9.14299C4.4802 7.46966 6.80163 6.47382 8.30036 6.91764H8.3163C8.07076 6.63849 7.72478 6.41736 7.2943 6.2872C5.49264 5.74928 2.71203 6.949 1.10648 8.94382C-0.499069 10.9386 -0.331659 12.9962 1.45406 13.5012H1.45246Z" fill="#7FBE26"/>
<path d="M11.2293 16.164H9.06889V10.4618H5.11481V8.65674H11.2293V16.164ZM17.9289 10.4775H13.9748V16.1734H11.8144V8.66615H17.9289V10.4775Z" fill="black"/>
<path d="M11.8176 0.98959C11.7985 0.730827 11.6709 0.489316 11.4589 0.307398C11.2022 0.0878414 10.845 -0.0219367 10.4799 0.00315548C10.1148 0.0282476 9.77679 0.18821 9.55357 0.442268C9.36863 0.650846 9.27775 0.908041 9.29688 1.1668C9.31601 1.424 9.44356 1.66708 9.65562 1.84743C9.91231 2.06698 10.2695 2.17676 10.6346 2.15167C11.3297 2.10305 11.8607 1.58082 11.8176 0.98959Z" fill="#595757"/>
<path d="M12.2337 1.40991C12.0838 2.04976 11.4684 2.55788 10.6999 2.6112C10.2264 2.64413 9.76082 2.49672 9.41962 2.20816C9.35904 2.15797 9.30483 2.10308 9.2554 2.04506C8.49647 2.65197 8.01178 3.57725 8.01178 4.61543C8.01178 6.44559 9.52007 7.92916 11.3807 7.92916C13.2414 7.92916 14.7497 6.44559 14.7497 4.61543C14.7497 3.0754 13.6814 1.78159 12.2353 1.40991H12.2337ZM8.75636 5.89513C7.97033 4.67659 9.04654 2.84644 9.04654 2.84644L9.87243 3.29339C9.87243 3.29339 8.632 3.61959 8.75636 5.89513Z" fill="#7FBE26"/>
</g>
<defs>
<clipPath id="clip0_16_505">
<rect width="25" height="20" fill="white"/>
</clipPath>
</defs>
</svg>
