<svg width="24" height="24" viewBox="0 0 24 24" fill="none" xmlns="http://www.w3.org/2000/svg">
<rect width="24" height="24" rx="8" fill="white"/>
<g clip-path="url(#clip0_17_675)">
<path d="M5.77824 8.18323L9.61978 12L5.77824 15.8168C5.7088 15.6717 5.66667 15.5112 5.66667 15.3399V8.66018C5.66667 8.48881 5.7088 8.32837 5.77824 8.18323Z" fill="#6D6D6D"/>
<path d="M6.77995 7.54688H17.2201C17.3914 7.54688 17.5519 7.58901 17.697 7.65845L12.7871 12.5436C12.353 12.9777 11.647 12.9777 11.2129 12.5436L6.30299 7.65845C6.44814 7.58901 6.60858 7.54688 6.77995 7.54688Z" fill="#6D6D6D"/>
<path d="M18.2218 8.18323C18.2912 8.32837 18.3333 8.48881 18.3333 8.66018V15.3399C18.3333 15.5112 18.2912 15.6717 18.2218 15.8168L14.3802 12L18.2218 8.18323Z" fill="#6D6D6D"/>
<path d="M10.1445 12.5248L10.6881 13.0684C11.4115 13.7917 12.5885 13.7917 13.3119 13.0684L13.8555 12.5248L17.697 16.3416C17.5519 16.411 17.3914 16.4532 17.2201 16.4532H6.77995C6.60858 16.4532 6.44814 16.411 6.30299 16.3416L10.1445 12.5248Z" fill="#6D6D6D"/>
</g>
<defs>
<clipPath id="clip0_17_675">
<rect width="12.6667" height="12.6667" fill="white" transform="matrix(-1 0 0 1 18.3333 5.66669)"/>
</clipPath>
</defs>
</svg>
