<svg width="24" height="24" viewBox="0 0 24 24" fill="none" xmlns="http://www.w3.org/2000/svg">
<rect width="24" height="24" rx="8" fill="white"/>
<g clip-path="url(#clip0_17_710)">
<path d="M17.9973 17V16.9996H18V12.9653C18 10.9917 17.5751 9.47144 15.2679 9.47144C14.1587 9.47144 13.4144 10.0801 13.1105 10.6571H13.0784V9.65569H10.8908V16.9996H13.1687V13.3631C13.1687 12.4057 13.3502 11.4799 14.5359 11.4799C15.7042 11.4799 15.7216 12.5725 15.7216 13.4246V17H17.9973Z" fill="#0077B5"/>
<path d="M7.1815 9.65613H9.46217V17H7.1815V9.65613Z" fill="#0077B5"/>
<path d="M8.32092 6C7.59171 6 7 6.59171 7 7.32092C7 8.05013 7.59171 8.65421 8.32092 8.65421C9.05012 8.65421 9.64183 8.05013 9.64183 7.32092C9.64137 6.59171 9.04967 6 8.32092 6V6Z" fill="#0077B5"/>
</g>
<defs>
<clipPath id="clip0_17_710">
<rect width="11" height="11" fill="white" transform="translate(7 6)"/>
</clipPath>
</defs>
</svg>
