<svg width="14" height="14" viewBox="0 0 14 14" fill="none" xmlns="http://www.w3.org/2000/svg">
<g clip-path="url(#clip0_17_677)">
<path d="M0.778244 3.18323L4.61978 7.00003L0.778244 10.8168C0.7088 10.6717 0.666668 10.5112 0.666668 10.3399V3.66018C0.666668 3.48881 0.7088 3.32837 0.778244 3.18323Z" fill="#6D6D6D"/>
<path d="M1.77995 2.54688H12.2201C12.3914 2.54688 12.5519 2.58901 12.697 2.65845L7.78711 7.54361C7.35298 7.97774 6.64702 7.97774 6.21289 7.54361L1.30299 2.65845C1.44814 2.58901 1.60858 2.54688 1.77995 2.54688Z" fill="#6D6D6D"/>
<path d="M13.2218 3.18323C13.2912 3.32837 13.3333 3.48881 13.3333 3.66018V10.3399C13.3333 10.5112 13.2912 10.6717 13.2218 10.8168L9.38021 7.00003L13.2218 3.18323Z" fill="#6D6D6D"/>
<path d="M5.14453 7.52478L5.68813 8.06838C6.4115 8.79174 7.58853 8.79174 8.31189 8.06838L8.85547 7.52478L12.697 11.3416C12.5519 11.411 12.3914 11.4532 12.2201 11.4532H1.77995C1.60858 11.4532 1.44814 11.411 1.30299 11.3416L5.14453 7.52478Z" fill="#6D6D6D"/>
</g>
<defs>
<clipPath id="clip0_17_677">
<rect width="12.6667" height="12.6667" fill="white" transform="matrix(-1 0 0 1 13.3333 0.666687)"/>
</clipPath>
</defs>
</svg>
