<svg width="114" height="24" viewBox="0 0 114 24" fill="none" xmlns="http://www.w3.org/2000/svg">
<g clip-path="url(#clip0_213_387)">
<path d="M29.55 9.36001L31.62 12.38L33.68 9.36001H34.22L31.91 12.74V15.31H30.91V12.83L28.53 9.35001H29.55V9.36001Z" fill="#756254"/>
<path d="M35.99 12.36C35.99 12.78 36.05 13.15 36.18 13.48C36.31 13.81 36.48 14.09 36.7 14.32C36.92 14.55 37.18 14.72 37.48 14.85C37.78 14.98 38.1 15.03 38.45 15.03C38.66 15.03 38.86 14.99 39.06 14.91C39.26 14.83 39.44 14.72 39.6 14.59C39.76 14.46 39.92 14.31 40.05 14.15C40.18 13.99 40.29 13.82 40.37 13.65L40.79 13.92C40.67 14.12 40.52 14.31 40.35 14.5C40.18 14.69 39.99 14.85 39.77 14.99C39.55 15.13 39.3 15.25 39.02 15.33C38.74 15.41 38.43 15.46 38.09 15.46C37.6 15.46 37.15 15.38 36.74 15.21C36.33 15.04 35.99 14.82 35.7 14.54C35.41 14.26 35.19 13.93 35.03 13.55C34.87 13.17 34.79 12.78 34.79 12.36C34.79 12.08 34.83 11.81 34.9 11.54C34.97 11.27 35.08 11.03 35.21 10.79C35.34 10.55 35.51 10.35 35.71 10.15C35.91 9.95 36.13 9.79 36.37 9.65C36.61 9.51 36.89 9.4 37.18 9.33C37.47 9.26 37.79 9.22 38.12 9.22C38.45 9.22 38.73 9.26 39 9.35C39.27 9.44 39.51 9.55 39.73 9.69C39.95 9.83 40.15 9.99 40.32 10.18C40.49 10.37 40.64 10.56 40.76 10.76L40.32 11.05C40.07 10.57 39.79 10.22 39.48 9.99C39.17 9.76 38.82 9.66 38.42 9.66C38.08 9.66 37.75 9.72 37.45 9.85C37.15 9.98 36.89 10.16 36.67 10.39C36.45 10.62 36.27 10.91 36.14 11.24C36.01 11.57 35.95 11.95 35.95 12.37L35.99 12.36Z" fill="#756254"/>
<path d="M44.0701 9.36H46.0601C46.6701 9.36 47.2001 9.42 47.6401 9.53C48.0801 9.64 48.4501 9.83 48.7401 10.08C49.0801 10.37 49.3301 10.7 49.5001 11.07C49.6701 11.44 49.7501 11.85 49.7501 12.29C49.7501 12.73 49.6701 13.1 49.5201 13.47C49.3701 13.84 49.1501 14.16 48.8601 14.43C48.5701 14.7 48.2101 14.92 47.7801 15.08C47.3501 15.24 46.8601 15.32 46.3001 15.32H44.0801V9.36H44.0701ZM45.0701 14.88H46.1301C46.4701 14.88 46.7801 14.82 47.0801 14.71C47.3801 14.6 47.6301 14.43 47.8501 14.22C48.0701 14.01 48.2401 13.73 48.3701 13.41C48.5001 13.09 48.5601 12.72 48.5601 12.3C48.5601 11.93 48.5001 11.59 48.3801 11.29C48.2601 10.99 48.0901 10.72 47.8801 10.5C47.6701 10.28 47.4101 10.11 47.1101 9.98C46.8101 9.85 46.4901 9.8 46.1301 9.8H45.0601V14.88H45.0701Z" fill="#756254"/>
<path d="M55.2301 9.36V9.75H52.0901V11.88H54.1901V12.27H52.0901V14.94H55.2301V15.33H51.0901V9.37H55.2301V9.36Z" fill="#756254"/>
<path d="M58.36 15.08C58.51 15.08 58.6499 15.06 58.7999 15.02C58.9499 14.98 59.0699 14.92 59.1899 14.84C59.3099 14.76 59.3999 14.66 59.4599 14.55C59.5199 14.44 59.56 14.3 59.56 14.15C59.56 13.97 59.5099 13.8 59.4199 13.66C59.3299 13.52 59.1999 13.39 59.0499 13.27C58.8999 13.15 58.7199 13.04 58.5299 12.94C58.3399 12.84 58.13 12.73 57.93 12.63C57.73 12.53 57.53 12.42 57.33 12.3C57.13 12.18 56.96 12.06 56.81 11.91C56.66 11.76 56.5299 11.61 56.4399 11.43C56.3499 11.25 56.2999 11.05 56.2999 10.83C56.2999 10.61 56.34 10.39 56.43 10.2C56.52 10.01 56.64 9.84001 56.81 9.69001C56.98 9.54001 57.1799 9.44001 57.4199 9.36001C57.6599 9.28001 57.94 9.24001 58.25 9.24001C58.53 9.24001 58.78 9.27001 59 9.33001C59.22 9.39001 59.42 9.48001 59.58 9.59001C59.74 9.70001 59.8899 9.85001 60.0099 10.02C60.1299 10.19 60.22 10.39 60.29 10.61L59.7799 10.84C59.7199 10.66 59.6399 10.49 59.5499 10.34C59.4599 10.19 59.35 10.06 59.22 9.95001C59.09 9.84001 58.94 9.76001 58.77 9.70001C58.6 9.64001 58.41 9.61001 58.2 9.61001C58.01 9.61001 57.8499 9.64001 57.7099 9.69001C57.5699 9.74001 57.45 9.81001 57.36 9.90001C57.27 9.99001 57.2 10.08 57.15 10.19C57.1 10.3 57.08 10.4 57.08 10.52C57.08 10.68 57.13 10.82 57.22 10.95C57.31 11.08 57.4399 11.2 57.5999 11.32C57.7599 11.44 57.9399 11.55 58.1399 11.65C58.3399 11.75 58.5499 11.87 58.7599 11.98C58.9699 12.09 59.18 12.21 59.38 12.33C59.58 12.45 59.7599 12.58 59.9199 12.72C60.0799 12.86 60.2099 13.02 60.2999 13.19C60.3899 13.36 60.4399 13.55 60.4399 13.76C60.4399 14 60.4 14.22 60.31 14.43C60.22 14.64 60.09 14.82 59.91 14.97C59.73 15.12 59.51 15.25 59.24 15.34C58.97 15.43 58.66 15.47 58.31 15.47C58.02 15.47 57.77 15.44 57.54 15.38C57.31 15.32 57.1199 15.23 56.9399 15.11C56.7599 14.99 56.62 14.84 56.5 14.67C56.38 14.5 56.28 14.3 56.2 14.08L56.7299 13.86C56.7899 14.05 56.8799 14.23 56.9799 14.38C57.0799 14.53 57.2099 14.66 57.3499 14.77C57.4899 14.88 57.65 14.96 57.82 15.01C57.99 15.06 58.1799 15.1 58.3699 15.1L58.36 15.08Z" fill="#756254"/>
<path d="M61.8201 9.36H62.8201V15.32H61.8201V9.36Z" fill="#756254"/>
<path d="M67.8199 9.65001C67.4599 9.65001 67.1299 9.71001 66.8299 9.84001C66.5299 9.97001 66.2599 10.15 66.0399 10.39C65.8199 10.63 65.6499 10.92 65.5299 11.25C65.4099 11.58 65.3499 11.96 65.3499 12.38C65.3499 12.8 65.4199 13.18 65.5499 13.51C65.6799 13.84 65.8699 14.13 66.0999 14.37C66.3299 14.61 66.6099 14.79 66.9199 14.92C67.2299 15.05 67.5699 15.11 67.9299 15.11C68.1899 15.11 68.4299 15.07 68.6399 15C68.8499 14.93 69.0399 14.83 69.2099 14.7V12.61H68.0799V12.26H70.2099V14.88C70.0399 14.97 69.8599 15.06 69.6799 15.13C69.4999 15.2 69.3099 15.26 69.1099 15.31C68.9099 15.36 68.6799 15.39 68.4299 15.42C68.1799 15.45 67.9099 15.46 67.5899 15.46C67.2599 15.46 66.9499 15.42 66.6499 15.35C66.3499 15.28 66.0799 15.17 65.8299 15.04C65.5799 14.91 65.3499 14.74 65.1499 14.56C64.9499 14.38 64.7699 14.17 64.6299 13.94C64.4899 13.71 64.3799 13.47 64.2999 13.21C64.2199 12.95 64.1799 12.68 64.1799 12.4C64.1799 12.12 64.2199 11.85 64.2899 11.58C64.3599 11.31 64.4699 11.06 64.6099 10.83C64.7499 10.6 64.9199 10.38 65.1099 10.19C65.2999 10 65.5299 9.83001 65.7799 9.69001C66.0299 9.55001 66.2999 9.44001 66.5899 9.36001C66.8799 9.28001 67.1899 9.24001 67.5199 9.24001C67.8499 9.24001 68.1299 9.28001 68.3899 9.37001C68.6499 9.46001 68.8999 9.57001 69.1199 9.71001C69.3399 9.85001 69.5399 10.01 69.7099 10.2C69.8799 10.39 70.0299 10.58 70.1499 10.78L69.7199 11.07C69.4699 10.59 69.1899 10.24 68.8799 10.01C68.5699 9.78001 68.2199 9.68001 67.8199 9.68001V9.65001Z" fill="#756254"/>
<path d="M71.72 9.36001H72.28L76.18 13.72H76.22V9.36001H76.66V15.45H76.43L72.2 10.61H72.16V15.31H71.71V9.35001L71.72 9.36001Z" fill="#756254"/>
<path d="M82.13 15.08C82.28 15.08 82.42 15.06 82.57 15.02C82.72 14.98 82.84 14.92 82.96 14.84C83.08 14.76 83.17 14.66 83.23 14.55C83.29 14.44 83.33 14.3 83.33 14.15C83.33 13.97 83.28 13.8 83.19 13.66C83.1 13.52 82.97 13.39 82.82 13.27C82.67 13.15 82.49 13.04 82.3 12.94C82.11 12.84 81.9 12.73 81.7 12.63C81.5 12.53 81.3 12.42 81.1 12.3C80.9 12.18 80.73 12.06 80.58 11.91C80.43 11.76 80.3 11.61 80.21 11.43C80.12 11.25 80.07 11.05 80.07 10.83C80.07 10.61 80.11 10.39 80.2 10.2C80.29 10.01 80.41 9.84001 80.58 9.69001C80.75 9.54001 80.95 9.44001 81.19 9.36001C81.43 9.28001 81.71 9.24001 82.02 9.24001C82.3 9.24001 82.55 9.27001 82.77 9.33001C82.99 9.39001 83.19 9.48001 83.35 9.59001C83.51 9.70001 83.66 9.85001 83.78 10.02C83.9 10.19 83.99 10.39 84.06 10.61L83.55 10.84C83.49 10.66 83.41 10.49 83.32 10.34C83.23 10.19 83.12 10.06 82.99 9.95001C82.86 9.84001 82.71 9.76001 82.54 9.70001C82.37 9.64001 82.18 9.61001 81.97 9.61001C81.78 9.61001 81.62 9.64001 81.48 9.69001C81.34 9.74001 81.22 9.81001 81.13 9.90001C81.04 9.99001 80.97 10.08 80.92 10.19C80.87 10.3 80.85 10.4 80.85 10.52C80.85 10.68 80.9 10.82 80.99 10.95C81.08 11.08 81.21 11.2 81.37 11.32C81.53 11.44 81.71 11.55 81.91 11.65C82.11 11.75 82.32 11.87 82.53 11.98C82.74 12.09 82.95 12.21 83.15 12.33C83.35 12.45 83.53 12.58 83.69 12.72C83.85 12.86 83.98 13.02 84.07 13.19C84.16 13.36 84.21 13.55 84.21 13.76C84.21 14 84.17 14.22 84.08 14.43C83.99 14.64 83.86 14.82 83.68 14.97C83.5 15.12 83.28 15.25 83.01 15.34C82.74 15.43 82.43 15.47 82.08 15.47C81.79 15.47 81.54 15.44 81.31 15.38C81.08 15.32 80.89 15.23 80.71 15.11C80.53 14.99 80.39 14.84 80.27 14.67C80.15 14.5 80.05 14.3 79.97 14.08L80.5 13.86C80.56 14.05 80.65 14.23 80.75 14.38C80.85 14.53 80.98 14.66 81.12 14.77C81.26 14.88 81.42 14.96 81.59 15.01C81.76 15.06 81.95 15.1 82.14 15.1L82.13 15.08Z" fill="#756254"/>
<path d="M90.2599 9.36V9.75H88.0999V15.32H87.0999V9.75H84.9399V9.36H90.2499H90.2599Z" fill="#756254"/>
<path d="M91.1501 9.36H92.1501V13.23C92.1501 13.48 92.1901 13.72 92.2801 13.95C92.3701 14.18 92.4901 14.37 92.6501 14.54C92.8101 14.71 93.0101 14.84 93.2401 14.94C93.4701 15.04 93.7201 15.09 94.0101 15.09C94.3001 15.09 94.5501 15.04 94.7801 14.94C95.0101 14.84 95.2001 14.71 95.3601 14.54C95.5201 14.37 95.6401 14.18 95.7301 13.95C95.8201 13.72 95.8601 13.49 95.8601 13.23V9.36H96.3001V13.23C96.3001 13.54 96.2501 13.82 96.1501 14.09C96.0501 14.36 95.9001 14.6 95.6901 14.8C95.4801 15 95.2101 15.16 94.8801 15.28C94.5501 15.4 94.1601 15.46 93.6901 15.46C93.2801 15.46 92.9201 15.4 92.6001 15.28C92.2801 15.16 92.0201 15 91.8101 14.8C91.6001 14.6 91.4301 14.36 91.3201 14.08C91.2101 13.8 91.1601 13.51 91.1601 13.2V9.36H91.1501Z" fill="#756254"/>
<path d="M97.8201 9.36H99.8101C100.42 9.36 100.95 9.42 101.39 9.53C101.83 9.64 102.2 9.83 102.49 10.08C102.83 10.37 103.08 10.7 103.25 11.07C103.42 11.44 103.5 11.85 103.5 12.29C103.5 12.73 103.42 13.1 103.27 13.47C103.12 13.84 102.9 14.16 102.61 14.43C102.32 14.7 101.96 14.92 101.53 15.08C101.1 15.24 100.61 15.32 100.05 15.32H97.8301V9.36H97.8201ZM98.8201 14.88H99.8801C100.22 14.88 100.53 14.82 100.83 14.71C101.13 14.6 101.38 14.43 101.6 14.22C101.82 14.01 101.99 13.73 102.12 13.41C102.25 13.09 102.31 12.72 102.31 12.3C102.31 11.93 102.25 11.59 102.13 11.29C102.01 10.99 101.84 10.72 101.63 10.5C101.42 10.28 101.16 10.11 100.86 9.98C100.56 9.85 100.24 9.8 99.8801 9.8H98.8101V14.88H98.8201Z" fill="#756254"/>
<path d="M104.84 9.36H105.84V15.32H104.84V9.36Z" fill="#756254"/>
<path d="M110.47 15.46C110.01 15.46 109.58 15.38 109.18 15.21C108.78 15.04 108.43 14.82 108.14 14.53C107.85 14.24 107.61 13.91 107.44 13.53C107.27 13.15 107.19 12.74 107.19 12.31C107.19 12.03 107.23 11.75 107.3 11.49C107.37 11.23 107.48 10.98 107.63 10.75C107.78 10.52 107.94 10.32 108.14 10.13C108.34 9.94 108.56 9.78 108.8 9.65C109.04 9.52 109.3 9.41 109.59 9.34C109.88 9.27 110.17 9.23 110.47 9.23C110.77 9.23 111.07 9.27 111.35 9.34C111.63 9.41 111.89 9.52 112.14 9.65C112.39 9.78 112.6 9.94 112.8 10.13C113 10.32 113.17 10.52 113.31 10.75C113.45 10.98 113.56 11.22 113.64 11.49C113.72 11.76 113.75 12.03 113.75 12.31C113.75 12.59 113.71 12.88 113.64 13.14C113.57 13.4 113.45 13.66 113.31 13.89C113.17 14.12 113 14.34 112.8 14.53C112.6 14.72 112.38 14.89 112.14 15.02C111.9 15.15 111.63 15.26 111.35 15.34C111.07 15.42 110.77 15.45 110.47 15.45V15.46ZM110.47 15.16C110.81 15.16 111.11 15.09 111.38 14.95C111.65 14.81 111.86 14.61 112.04 14.35C112.22 14.09 112.36 13.79 112.45 13.45C112.54 13.11 112.59 12.72 112.59 12.31C112.59 11.9 112.54 11.52 112.45 11.18C112.36 10.84 112.22 10.54 112.04 10.3C111.86 10.06 111.64 9.86 111.38 9.73C111.12 9.6 110.82 9.53 110.47 9.53C110.12 9.53 109.82 9.6 109.56 9.73C109.3 9.86 109.08 10.06 108.9 10.3C108.72 10.54 108.59 10.84 108.5 11.18C108.41 11.52 108.37 11.9 108.37 12.31C108.37 12.72 108.41 13.1 108.5 13.45C108.59 13.8 108.72 14.1 108.9 14.35C109.08 14.6 109.3 14.8 109.56 14.95C109.82 15.1 110.13 15.16 110.47 15.16Z" fill="#756254"/>
<path d="M13.0099 7.44001C13.2899 6.75001 13.6299 6.08001 14.0299 5.45001C14.4299 4.82001 14.8799 4.24001 15.3799 3.71001C15.8799 3.18001 16.4299 2.72001 17.0299 2.32001C17.3399 2.11001 17.6899 1.99001 18.0099 1.82001C16.1999 0.680006 14.0699 -0.00999451 11.7699 -0.00999451C11.5499 -0.00999451 11.3499 0.0400055 11.1299 0.0500055C11.0199 0.100005 10.9099 0.130005 10.7999 0.190005C10.3699 0.420006 9.99989 0.720006 9.68989 1.08001C9.37989 1.44001 9.12989 1.87001 8.93989 2.35001C8.74989 2.83001 8.66989 3.33001 8.66989 3.86001C8.66989 4.22001 8.68989 4.54001 8.73989 4.84001C8.78989 5.14001 8.83989 5.42001 8.88989 5.69001C8.93989 5.96001 8.98989 6.21001 9.03989 6.46001C9.08989 6.71001 9.10989 6.95001 9.10989 7.19001C9.10989 7.64001 9.00989 8.10001 8.81989 8.56001C8.62989 9.02001 8.35989 9.45001 8.01989 9.86001C7.67989 10.27 7.28989 10.62 6.83989 10.94C6.38989 11.26 5.90989 11.49 5.38989 11.65C5.90989 11.77 6.38989 11.99 6.83989 12.29C7.28989 12.59 7.68989 12.95 8.01989 13.37C8.34989 13.79 8.61989 14.24 8.81989 14.73C9.01989 15.22 9.10989 15.72 9.10989 16.22C9.10989 16.52 9.08989 16.8 9.03989 17.06C8.98989 17.32 8.93989 17.58 8.88989 17.84C8.83989 18.1 8.78989 18.37 8.73989 18.65C8.68989 18.93 8.66989 19.24 8.66989 19.58C8.66989 20.13 8.75989 20.66 8.93989 21.14C9.11989 21.62 9.36989 22.06 9.68989 22.43C10.0099 22.8 10.3799 23.1 10.7999 23.34C10.9099 23.4 11.0299 23.44 11.1499 23.49C11.3599 23.5 11.5599 23.55 11.7699 23.55C14.0499 23.55 16.1699 22.87 17.9699 21.75C17.3299 21.43 16.7199 21.07 16.1599 20.6C15.3199 19.9 14.6099 19.09 14.0099 18.17C13.4099 17.25 12.9499 16.25 12.6199 15.16C12.2899 14.08 12.1299 12.97 12.1299 11.85C12.1299 11.1 12.1999 10.35 12.3499 9.60001C12.4999 8.85001 12.7099 8.13001 12.9999 7.44001H13.0099Z" fill="#756254"/>
<path d="M18.48 2.12001C17.84 2.61001 17.27 3.14001 16.81 3.75001C16.24 4.51001 15.79 5.32001 15.44 6.20001C15.09 7.08001 14.86 7.99001 14.72 8.95001C14.58 9.91001 14.51 10.88 14.51 11.85C14.51 12.82 14.57 13.76 14.68 14.7C14.79 15.64 15.01 16.54 15.34 17.4C15.67 18.26 16.12 19.06 16.69 19.81C17.16 20.42 17.77 20.95 18.47 21.44C21.53 19.31 23.54 15.79 23.54 11.78C23.54 7.77001 21.53 4.25001 18.48 2.13001V2.12001Z" fill="#897466"/>
<path d="M8.3 22.63C7.8 22.13 7.41 21.55 7.12 20.88C6.83 20.21 6.69 19.5 6.69 18.75C6.69 18.48 6.71 18.21 6.75 17.95C6.79 17.69 6.84 17.43 6.9 17.16C6.96 16.89 7.01 16.61 7.05 16.31C7.09 16.01 7.11 15.69 7.11 15.33C7.11 14.88 7.03 14.45 6.86 14.05C6.69 13.65 6.47 13.3 6.18 13C5.89 12.7 5.55 12.47 5.17 12.3C4.79 12.13 4.37 12.04 3.93 12.04V11.38C4.37 11.38 4.79 11.29 5.17 11.12C5.55 10.95 5.89 10.71 6.18 10.42C6.47 10.13 6.7 9.77 6.86 9.37C7.02 8.97 7.11 8.54 7.11 8.09C7.11 7.7 7.09 7.34 7.05 7.02C7.01 6.7 6.96 6.4 6.9 6.13C6.84 5.86 6.79 5.6 6.75 5.37C6.71 5.14 6.69 4.9 6.69 4.68C6.69 3.94 6.83 3.24 7.12 2.59C7.41 1.94 7.8 1.37 8.3 0.879999C8.49 0.699999 8.7 0.539999 8.91 0.389999C3.8 1.67 0 6.26 0 11.77C0 17.28 3.82 21.9 8.95 23.16C8.72 22.99 8.5 22.82 8.3 22.63Z" fill="#5E4F45"/>
</g>
<defs>
<clipPath id="clip0_213_387">
<rect width="113.76" height="23.54" fill="white"/>
</clipPath>
</defs>
</svg>
