<svg width="99" height="20" viewBox="0 0 99 20" fill="none" xmlns="http://www.w3.org/2000/svg">
<path d="M90 18.5L83 18.5L83 16.5L90 18.5Z" fill="#8B7F76"/>
<path d="M12.836 5.136L9.68 13.5H8.42L5.264 5.136H6.428L9.056 12.348L11.684 5.136H12.836ZM15.5974 5.856C15.3894 5.856 15.2134 5.784 15.0694 5.64C14.9254 5.496 14.8534 5.32 14.8534 5.112C14.8534 4.904 14.9254 4.728 15.0694 4.584C15.2134 4.44 15.3894 4.368 15.5974 4.368C15.7974 4.368 15.9654 4.44 16.1014 4.584C16.2454 4.728 16.3174 4.904 16.3174 5.112C16.3174 5.32 16.2454 5.496 16.1014 5.64C15.9654 5.784 15.7974 5.856 15.5974 5.856ZM16.1254 6.924V13.5H15.0334V6.924H16.1254ZM24.9865 9.96C24.9865 10.168 24.9745 10.388 24.9505 10.62H19.6945C19.7345 11.268 19.9545 11.776 20.3545 12.144C20.7625 12.504 21.2545 12.684 21.8305 12.684C22.3025 12.684 22.6945 12.576 23.0065 12.36C23.3265 12.136 23.5505 11.84 23.6785 11.472H24.8545C24.6785 12.104 24.3265 12.62 23.7985 13.02C23.2705 13.412 22.6145 13.608 21.8305 13.608C21.2065 13.608 20.6465 13.468 20.1505 13.188C19.6625 12.908 19.2785 12.512 18.9985 12C18.7185 11.48 18.5785 10.88 18.5785 10.2C18.5785 9.52 18.7145 8.924 18.9865 8.412C19.2585 7.9 19.6385 7.508 20.1265 7.236C20.6225 6.956 21.1905 6.816 21.8305 6.816C22.4545 6.816 23.0065 6.952 23.4865 7.224C23.9665 7.496 24.3345 7.872 24.5905 8.352C24.8545 8.824 24.9865 9.36 24.9865 9.96ZM23.8585 9.732C23.8585 9.316 23.7665 8.96 23.5825 8.664C23.3985 8.36 23.1465 8.132 22.8265 7.98C22.5145 7.82 22.1665 7.74 21.7825 7.74C21.2305 7.74 20.7585 7.916 20.3665 8.268C19.9825 8.62 19.7625 9.108 19.7065 9.732H23.8585ZM36.1879 6.924L34.1359 13.5H33.0079L31.4239 8.28L29.8399 13.5H28.7119L26.6479 6.924H27.7639L29.2759 12.444L30.9079 6.924H32.0239L33.6199 12.456L35.1079 6.924H36.1879ZM50.9549 5.196V13.5H49.8629V7.308L47.1029 13.5H46.3349L43.5629 7.296V13.5H42.4709V5.196H43.6469L46.7189 12.06L49.7909 5.196H50.9549ZM56.6748 13.608C56.0588 13.608 55.4988 13.468 54.9948 13.188C54.4988 12.908 54.1068 12.512 53.8188 12C53.5388 11.48 53.3988 10.88 53.3988 10.2C53.3988 9.528 53.5428 8.936 53.8308 8.424C54.1268 7.904 54.5268 7.508 55.0308 7.236C55.5348 6.956 56.0988 6.816 56.7228 6.816C57.3468 6.816 57.9108 6.956 58.4148 7.236C58.9188 7.508 59.3148 7.9 59.6028 8.412C59.8988 8.924 60.0468 9.52 60.0468 10.2C60.0468 10.88 59.8948 11.48 59.5908 12C59.2948 12.512 58.8908 12.908 58.3788 13.188C57.8668 13.468 57.2988 13.608 56.6748 13.608ZM56.6748 12.648C57.0668 12.648 57.4348 12.556 57.7788 12.372C58.1228 12.188 58.3988 11.912 58.6068 11.544C58.8228 11.176 58.9308 10.728 58.9308 10.2C58.9308 9.672 58.8268 9.224 58.6188 8.856C58.4108 8.488 58.1388 8.216 57.8028 8.04C57.4668 7.856 57.1028 7.764 56.7108 7.764C56.3108 7.764 55.9428 7.856 55.6068 8.04C55.2788 8.216 55.0148 8.488 54.8148 8.856C54.6148 9.224 54.5148 9.672 54.5148 10.2C54.5148 10.736 54.6108 11.188 54.8028 11.556C55.0028 11.924 55.2668 12.2 55.5948 12.384C55.9228 12.56 56.2828 12.648 56.6748 12.648ZM63.5746 7.992C63.7666 7.616 64.0386 7.324 64.3906 7.116C64.7506 6.908 65.1866 6.804 65.6986 6.804V7.932H65.4106C64.1866 7.932 63.5746 8.596 63.5746 9.924V13.5H62.4826V6.924H63.5746V7.992ZM73.9592 9.96C73.9592 10.168 73.9472 10.388 73.9232 10.62H68.6672C68.7072 11.268 68.9272 11.776 69.3272 12.144C69.7352 12.504 70.2272 12.684 70.8032 12.684C71.2752 12.684 71.6672 12.576 71.9792 12.36C72.2992 12.136 72.5232 11.84 72.6512 11.472H73.8272C73.6512 12.104 73.2992 12.62 72.7712 13.02C72.2432 13.412 71.5872 13.608 70.8032 13.608C70.1792 13.608 69.6192 13.468 69.1232 13.188C68.6352 12.908 68.2512 12.512 67.9712 12C67.6912 11.48 67.5512 10.88 67.5512 10.2C67.5512 9.52 67.6872 8.924 67.9592 8.412C68.2312 7.9 68.6112 7.508 69.0992 7.236C69.5952 6.956 70.1632 6.816 70.8032 6.816C71.4272 6.816 71.9792 6.952 72.4592 7.224C72.9392 7.496 73.3072 7.872 73.5632 8.352C73.8272 8.824 73.9592 9.36 73.9592 9.96ZM72.8312 9.732C72.8312 9.316 72.7392 8.96 72.5552 8.664C72.3712 8.36 72.1192 8.132 71.7992 7.98C71.4872 7.82 71.1392 7.74 70.7552 7.74C70.2032 7.74 69.7312 7.916 69.3392 8.268C68.9552 8.62 68.7352 9.108 68.6792 9.732H72.8312Z" fill="#545454"/>
<a href="https://www.google.com/search?sca_esv=28b2a5fc72c189c6&#38;rlz=1C5CHFA_enTW904TW905&#38;q=coming+soon&#38;spell=1&#38;sa=X&#38;ved=2ahUKEwjAsNvVnd2JAxWYr1YBHTJcEh4QkeECKAB6BAgMEAE">
<rect fill="black" fill-opacity="0" y="-9.53674e-07" width="69.4752" height="18"/>
</a>
<path d="M1 19H90" stroke="#8B7F76" stroke-linecap="round"/>
</svg>
