<svg width="146" height="85" viewBox="0 0 146 85" fill="none" xmlns="http://www.w3.org/2000/svg">
<g clip-path="url(#clip0_1_12)">
<path d="M1.75478 74.6614L5.29213 79.7796L8.81757 74.6614H9.74657L5.79236 80.3967V84.7601H4.07728V80.554L0 74.6575H1.75478V74.6614Z" fill="#756254"/>
<path d="M12.7876 79.7521C12.7876 80.4596 12.8948 81.0925 13.1092 81.6507C13.3236 82.2129 13.6214 82.6885 13.9985 83.0738C14.3757 83.4629 14.8203 83.7578 15.3325 83.9661C15.8446 84.1705 16.4004 84.2727 17.0039 84.2727C17.3612 84.2727 17.7105 84.2059 18.044 84.0683C18.3775 83.9307 18.6872 83.7538 18.973 83.5298C19.2589 83.3096 19.513 83.058 19.7393 82.7829C19.9656 82.5077 20.1482 82.2247 20.2951 81.9416L21.0176 82.3976C20.8072 82.7396 20.5571 83.0659 20.2713 83.3764C19.9854 83.687 19.6519 83.9661 19.2748 84.2059C18.8976 84.4457 18.4728 84.6383 17.9964 84.7798C17.52 84.9213 16.992 84.9921 16.4084 84.9921C15.5627 84.9921 14.7925 84.8506 14.1057 84.5715C13.4149 84.2924 12.8234 83.915 12.3311 83.4354C11.8388 82.9598 11.4577 82.4016 11.1877 81.7647C10.9177 81.1279 10.7827 80.4518 10.7827 79.7403C10.7827 79.2686 10.8463 78.8086 10.9693 78.3566C11.0924 77.9084 11.2711 77.4839 11.5053 77.0908C11.7395 76.6977 12.0214 76.336 12.3589 76.0098C12.6963 75.6835 13.0735 75.4004 13.4983 75.1646C13.9231 74.9287 14.3836 74.744 14.8878 74.6142C15.392 74.4845 15.928 74.4216 16.4957 74.4216C17.0634 74.4216 17.5398 74.4924 18.0004 74.6378C18.4609 74.7833 18.8778 74.9759 19.2549 75.2118C19.6321 75.4516 19.9695 75.7267 20.2633 76.0373C20.5571 76.3478 20.8112 76.6741 21.0216 77.0161L20.2752 77.5035C19.8504 76.6859 19.374 76.0884 18.846 75.711C18.318 75.3336 17.7105 75.1449 17.0237 75.1449C16.4322 75.1449 15.8843 75.2511 15.3682 75.4633C14.8561 75.6756 14.4074 75.9822 14.0263 76.3793C13.6452 76.7763 13.3435 77.2559 13.1251 77.8219C12.9067 78.388 12.7996 79.0288 12.7996 79.7363L12.7876 79.7521Z" fill="#756254"/>
<path d="M26.6274 74.6614H30.0297C31.0778 74.6614 31.9751 74.7597 32.7294 74.9523C33.4837 75.1449 34.111 75.4554 34.6152 75.88C35.1909 76.3674 35.6236 76.9256 35.9134 77.5546C36.2032 78.1836 36.3462 78.8715 36.3462 79.6184C36.3462 80.3653 36.2151 80.9982 35.9571 81.6232C35.699 82.2482 35.3179 82.7907 34.8177 83.2585C34.3174 83.7223 33.6981 84.0919 32.9636 84.3592C32.2292 84.6265 31.3835 84.7641 30.4347 84.7641H26.6274V74.6614ZM28.3425 84.025H30.1647C30.7404 84.025 31.2803 83.9307 31.7885 83.742C32.2967 83.5533 32.7373 83.2742 33.1145 82.9047C33.4917 82.5352 33.7894 82.0792 34.0078 81.5367C34.2261 80.9942 34.3333 80.3692 34.3333 79.6577C34.3333 79.0327 34.2301 78.4587 34.0237 77.9398C33.8172 77.4209 33.5314 76.9728 33.1621 76.5954C32.7929 76.2181 32.3522 75.9272 31.8441 75.7188C31.3319 75.5105 30.7761 75.4083 30.1727 75.4083H28.3425V84.025Z" fill="#756254"/>
<path d="M45.7434 74.6614V75.3179H40.3639V78.9304H43.9648V79.5869H40.3639V84.1115H45.7434V84.768H38.6488V74.6653H45.7434V74.6614Z" fill="#756254"/>
<path d="M51.1069 84.3592C51.3571 84.3592 51.6072 84.3238 51.8533 84.257C52.0995 84.1902 52.3218 84.088 52.5163 83.9504C52.7109 83.8167 52.8657 83.6516 52.9848 83.4551C53.1039 83.2585 53.1634 83.0305 53.1634 82.775C53.1634 82.4645 53.084 82.1893 52.9213 81.9495C52.7585 81.7097 52.5481 81.4857 52.2861 81.2852C52.024 81.0847 51.7263 80.896 51.3888 80.7191C51.0514 80.5422 50.7099 80.3653 50.3606 80.1845C50.0112 80.0076 49.6698 79.8189 49.3323 79.6263C48.9949 79.4297 48.6971 79.2135 48.4351 78.9698C48.173 78.73 47.9626 78.4588 47.7999 78.164C47.6371 77.8652 47.5577 77.5271 47.5577 77.138C47.5577 76.7488 47.6291 76.395 47.776 76.0648C47.9229 75.7346 48.1373 75.4476 48.4192 75.2079C48.7011 74.9681 49.0504 74.7794 49.4633 74.6418C49.8762 74.5042 50.3487 74.4374 50.8846 74.4374C51.365 74.4374 51.7977 74.4885 52.1789 74.5907C52.56 74.6929 52.8935 74.8423 53.1793 75.0388C53.4652 75.2354 53.7113 75.4791 53.9098 75.77C54.1083 76.0609 54.2711 76.395 54.3942 76.7763L53.5168 77.1734C53.4136 76.8628 53.2825 76.5798 53.1237 76.3243C52.9649 76.0687 52.7744 75.8486 52.556 75.6638C52.3337 75.4791 52.0796 75.3415 51.7898 75.2393C51.5 75.1371 51.1744 75.0899 50.8092 75.0899C50.4876 75.0899 50.2057 75.1332 49.9636 75.2236C49.7214 75.314 49.5229 75.428 49.3601 75.5734C49.1973 75.7189 49.0782 75.8801 48.9988 76.0609C48.9194 76.2417 48.8797 76.4265 48.8797 76.6112C48.8797 76.8746 48.9631 77.1183 49.1259 77.3385C49.2886 77.5586 49.507 77.7669 49.7809 77.9635C50.0509 78.16 50.3606 78.3487 50.7099 78.5296C51.0593 78.7104 51.4087 78.8991 51.766 79.0838C52.1233 79.2725 52.4766 79.4691 52.822 79.6695C53.1674 79.8739 53.4771 80.0941 53.751 80.3378C54.021 80.5776 54.2393 80.8449 54.4061 81.1319C54.5689 81.4188 54.6522 81.7412 54.6522 82.095C54.6522 82.4959 54.5768 82.8733 54.422 83.2271C54.2671 83.5809 54.0369 83.8875 53.7312 84.1469C53.4215 84.4103 53.0404 84.6147 52.5838 84.768C52.1273 84.9214 51.5953 84.996 50.9918 84.996C50.4995 84.996 50.0628 84.941 49.6777 84.8349C49.2926 84.7287 48.9552 84.5715 48.6574 84.371C48.3596 84.1705 48.1095 83.919 47.8991 83.6281C47.6887 83.3372 47.518 83.003 47.383 82.6257L48.3001 82.2522C48.4073 82.5824 48.5542 82.8772 48.7328 83.1367C48.9155 83.3961 49.1259 83.6163 49.368 83.7971C49.6102 83.9779 49.8762 84.1155 50.174 84.2138C50.4717 84.312 50.7814 84.3592 51.1149 84.3592H51.1069Z" fill="#756254"/>
<path d="M57.0303 74.6614H58.7454V84.7641H57.0303V74.6614Z" fill="#756254"/>
<path d="M67.3089 75.1567C66.6935 75.1567 66.1258 75.2628 65.6057 75.479C65.0856 75.6952 64.637 76.0058 64.2599 76.4068C63.8827 76.8117 63.5889 77.2991 63.3785 77.8691C63.1681 78.4391 63.0649 79.0798 63.0649 79.7835C63.0649 80.4871 63.18 81.1358 63.4063 81.7057C63.6326 82.2757 63.9462 82.7632 64.3432 83.1641C64.7402 83.5651 65.2087 83.8757 65.7486 84.0879C66.2886 84.3041 66.8642 84.4103 67.4796 84.4103C67.9243 84.4103 68.3292 84.3513 68.6865 84.2295C69.0438 84.1115 69.3694 83.9386 69.6552 83.7145V80.1727H67.7257V79.5712H71.3743V84.0132C71.0765 84.1705 70.7748 84.312 70.4731 84.4339C70.1713 84.5557 69.8418 84.6579 69.4924 84.7405C69.1431 84.823 68.754 84.882 68.3332 84.9252C67.9123 84.9685 67.4359 84.9881 66.9039 84.9881C66.3402 84.9881 65.8042 84.9252 65.2961 84.8034C64.7879 84.6815 64.3194 84.5007 63.8827 84.2727C63.45 84.0447 63.0569 83.7695 62.7076 83.455C62.3582 83.1406 62.0644 82.7868 61.8183 82.4015C61.5761 82.0163 61.3855 81.6035 61.2545 81.1593C61.1195 80.7191 61.056 80.2591 61.056 79.7796C61.056 79.3 61.1195 78.8479 61.2426 78.3958C61.3696 77.9477 61.5483 77.5232 61.7865 77.1222C62.0207 76.7252 62.3106 76.3596 62.648 76.0294C62.9855 75.6992 63.3706 75.4162 63.7954 75.1764C64.2202 74.9366 64.6847 74.7518 65.1889 74.6221C65.6931 74.4924 66.2251 74.4255 66.7888 74.4255C67.3526 74.4255 67.825 74.4963 68.2855 74.6417C68.7461 74.7872 69.1629 74.9798 69.5401 75.2157C69.9172 75.4555 70.2507 75.7306 70.5445 76.0412C70.8383 76.3517 71.0884 76.678 71.2988 77.02L70.5604 77.5074C70.1277 76.6898 69.6512 76.0923 69.1272 75.7149C68.6031 75.3375 67.9957 75.1488 67.3168 75.1488L67.3089 75.1567Z" fill="#756254"/>
<path d="M73.9866 74.6614H74.9473L81.633 82.0517H81.7084V74.6614H82.4627V84.9999H82.0617L74.8203 76.788H74.7568V84.7641H73.9786V74.6614H73.9866Z" fill="#756254"/>
<path d="M91.8123 84.3592C92.0624 84.3592 92.3125 84.3238 92.5586 84.257C92.8048 84.1902 93.0271 84.088 93.2216 83.9504C93.4162 83.8128 93.571 83.6516 93.6901 83.4551C93.8092 83.2585 93.8688 83.0305 93.8688 82.775C93.8688 82.4645 93.7894 82.1893 93.6266 81.9495C93.4638 81.7097 93.2534 81.4857 92.9914 81.2852C92.7293 81.0847 92.4316 80.896 92.0941 80.7191C91.7567 80.5422 91.4153 80.3653 91.0659 80.1845C90.7165 80.0076 90.3751 79.8189 90.0376 79.6263C89.7002 79.4297 89.4024 79.2135 89.1404 78.9698C88.8784 78.73 88.6679 78.4588 88.5052 78.164C88.3424 77.8652 88.263 77.5271 88.263 77.138C88.263 76.7488 88.3345 76.395 88.4814 76.0648C88.6282 75.7346 88.8426 75.4476 89.1245 75.2079C89.4064 74.9681 89.7558 74.7794 90.1686 74.6418C90.5815 74.5042 91.054 74.4374 91.5899 74.4374C92.0703 74.4374 92.5031 74.4885 92.8842 74.5907C93.2653 74.6929 93.5988 74.8423 93.8846 75.0388C94.1705 75.2354 94.4166 75.4791 94.6151 75.77C94.8136 76.0609 94.9764 76.395 95.0995 76.7763L94.2221 77.1734C94.1189 76.8628 93.9879 76.5798 93.8291 76.3243C93.6703 76.0687 93.4797 75.8486 93.2613 75.6638C93.039 75.4791 92.7849 75.3415 92.4951 75.2393C92.2053 75.141 91.8797 75.0899 91.5145 75.0899C91.1929 75.0899 90.9111 75.1332 90.6689 75.2236C90.4267 75.314 90.2282 75.428 90.0654 75.5734C89.9026 75.7189 89.7835 75.8801 89.7041 76.0609C89.6247 76.2417 89.585 76.4265 89.585 76.6112C89.585 76.8746 89.6684 77.1183 89.8312 77.3385C89.994 77.5586 90.2123 77.7669 90.4862 77.9635C90.7602 78.16 91.0659 78.3487 91.4152 78.5296C91.7606 78.7143 92.114 78.8991 92.4713 79.0838C92.8286 79.2725 93.1819 79.4691 93.5273 79.6695C93.8727 79.8739 94.1824 80.0941 94.4563 80.3378C94.7263 80.5776 94.9447 80.8449 95.1114 81.1319C95.2742 81.4188 95.3575 81.7412 95.3575 82.095C95.3575 82.4959 95.2821 82.8733 95.1273 83.2271C94.9724 83.5809 94.7422 83.8875 94.4365 84.1469C94.1268 84.4103 93.7457 84.6147 93.2891 84.768C92.8326 84.9214 92.3006 84.996 91.6971 84.996C91.2048 84.996 90.7681 84.941 90.383 84.8349C89.9979 84.7287 89.6605 84.5715 89.3627 84.371C89.065 84.1705 88.8148 83.919 88.6044 83.6281C88.394 83.3372 88.2233 83.003 88.0883 82.6257L89.0054 82.2522C89.1126 82.5824 89.2595 82.8772 89.4381 83.1367C89.6208 83.3961 89.8312 83.6163 90.0734 83.7971C90.3155 83.9779 90.5815 84.1155 90.8793 84.2138C91.1731 84.312 91.4867 84.3592 91.8202 84.3592H91.8123Z" fill="#756254"/>
<path d="M105.747 74.6614V75.3179H102.055V84.7641H100.34V75.3179H96.6478V74.6614H105.747Z" fill="#756254"/>
<path d="M107.268 74.6614H108.983V81.2183C108.983 81.6507 109.058 82.0556 109.205 82.433C109.352 82.8104 109.567 83.1445 109.844 83.4275C110.122 83.7106 110.456 83.9386 110.849 84.1037C111.242 84.2688 111.679 84.3513 112.159 84.3513C112.639 84.3513 113.084 84.2688 113.473 84.1037C113.862 83.9386 114.196 83.7145 114.47 83.4275C114.743 83.1445 114.954 82.8104 115.101 82.433C115.248 82.0556 115.319 81.6507 115.319 81.2183V74.6614H116.073V81.2183C116.073 81.7372 115.99 82.2246 115.819 82.6806C115.649 83.1366 115.387 83.5376 115.021 83.8796C114.656 84.2216 114.196 84.4928 113.632 84.6933C113.068 84.8938 112.389 84.996 111.599 84.996C110.896 84.996 110.273 84.8938 109.733 84.6933C109.193 84.4928 108.737 84.2216 108.372 83.8757C108.006 83.5297 107.728 83.1248 107.542 82.661C107.355 82.1971 107.26 81.7018 107.26 81.1711V74.6575L107.268 74.6614Z" fill="#756254"/>
<path d="M118.694 74.6614H122.096C123.144 74.6614 124.041 74.7597 124.796 74.9523C125.55 75.1449 126.177 75.4554 126.682 75.88C127.257 76.3674 127.69 76.9256 127.98 77.5546C128.27 78.1836 128.413 78.8715 128.413 79.6184C128.413 80.3653 128.281 80.9982 128.023 81.6232C127.765 82.2482 127.384 82.7907 126.884 83.2585C126.384 83.7223 125.764 84.0919 125.03 84.3592C124.296 84.6265 123.45 84.7641 122.501 84.7641H118.694V74.6614ZM120.409 84.025H122.231C122.807 84.025 123.347 83.9307 123.855 83.742C124.363 83.5533 124.804 83.2742 125.181 82.9047C125.558 82.5352 125.856 82.0792 126.074 81.5367C126.292 80.9942 126.4 80.3692 126.4 79.6577C126.4 79.0327 126.296 78.4587 126.09 77.9398C125.884 77.4209 125.598 76.9728 125.228 76.5954C124.859 76.2181 124.419 75.9272 123.91 75.7188C123.398 75.5105 122.842 75.4083 122.239 75.4083H120.409V84.025Z" fill="#756254"/>
<path d="M130.719 74.6614H132.434V84.7641H130.719V74.6614Z" fill="#756254"/>
<path d="M140.366 85C139.576 85 138.838 84.8585 138.155 84.5794C137.472 84.3003 136.877 83.919 136.369 83.4315C135.864 82.948 135.467 82.382 135.178 81.7333C134.888 81.0847 134.745 80.3929 134.745 79.6578C134.745 79.1743 134.808 78.7104 134.939 78.2623C135.07 77.8141 135.257 77.3974 135.495 77.0122C135.737 76.627 136.027 76.2732 136.369 75.9587C136.71 75.6403 137.087 75.369 137.504 75.145C137.921 74.9209 138.37 74.744 138.85 74.6182C139.33 74.4924 139.838 74.4335 140.366 74.4335C140.894 74.4335 141.399 74.4964 141.883 74.6182C142.363 74.744 142.816 74.917 143.233 75.145C143.65 75.369 144.031 75.6442 144.368 75.9587C144.706 76.2732 145 76.627 145.242 77.0122C145.484 77.3974 145.674 77.8141 145.802 78.2623C145.933 78.7104 145.996 79.1743 145.996 79.6578C145.996 80.1413 145.933 80.6169 145.802 81.069C145.67 81.525 145.484 81.9495 145.242 82.3466C145 82.7436 144.706 83.1013 144.368 83.4276C144.031 83.7539 143.65 84.033 143.233 84.2649C142.816 84.4968 142.363 84.6777 141.883 84.8074C141.403 84.9332 140.894 84.9961 140.366 84.9961V85ZM140.366 84.4968C140.95 84.4968 141.466 84.375 141.915 84.1352C142.363 83.8954 142.741 83.5573 143.05 83.1249C143.36 82.6925 143.59 82.1815 143.745 81.5918C143.9 81.0022 143.979 80.3575 143.979 79.6578C143.979 78.958 143.9 78.3252 143.745 77.7473C143.59 77.1694 143.356 76.6702 143.05 76.2496C142.741 75.829 142.363 75.5066 141.915 75.2747C141.466 75.0428 140.95 74.9288 140.366 74.9288C139.783 74.9288 139.251 75.0428 138.802 75.2747C138.354 75.5066 137.976 75.829 137.671 76.2496C137.365 76.6702 137.135 77.1694 136.984 77.7473C136.829 78.3252 136.754 78.962 136.754 79.6578C136.754 80.3536 136.829 81.0022 136.984 81.5918C137.139 82.1815 137.369 82.6925 137.671 83.1249C137.976 83.5573 138.354 83.8915 138.802 84.1352C139.251 84.3789 139.771 84.4968 140.366 84.4968Z" fill="#756254"/>
<path d="M76.2217 19.2344C76.9602 17.4379 77.8495 15.724 78.8936 14.0926C79.9377 12.4613 81.1168 10.9636 82.427 9.60343C83.7371 8.24331 85.1703 7.04828 86.7306 6.01443C87.5365 5.47981 88.4417 5.15354 89.3032 4.72506C84.5669 1.77681 79.0087 0 73.002 0C72.4303 0 71.8943 0.137585 71.3306 0.165102C71.0447 0.283032 70.7509 0.369514 70.477 0.518892C69.3614 1.11247 68.3927 1.88688 67.5709 2.83425C66.7491 3.78162 66.098 4.87444 65.6216 6.1127C65.1452 7.35097 64.903 8.65213 64.903 10.0123C64.903 10.936 64.9626 11.7812 65.0856 12.5438C65.2087 13.3104 65.3357 14.0376 65.4707 14.7295C65.6057 15.4213 65.7328 16.0817 65.8558 16.7146C65.9789 17.3475 66.0384 17.9765 66.0384 18.6094C66.0384 19.7769 65.7883 20.9522 65.2841 22.1433C64.7799 23.3344 64.0891 24.4508 63.2038 25.4965C62.3224 26.5421 61.2902 27.4698 60.1111 28.2835C58.932 29.0973 57.6695 29.7105 56.3197 30.1232C57.6695 30.4377 58.932 30.992 60.1111 31.7821C61.2902 32.5723 62.3185 33.5 63.2038 34.5692C64.0852 35.6384 64.7799 36.8099 65.2841 38.0835C65.7883 39.3572 66.0384 40.6387 66.0384 41.928C66.0384 42.7064 65.9789 43.4297 65.8558 44.094C65.7328 44.7623 65.6057 45.4306 65.4707 46.0988C65.3357 46.7671 65.2087 47.4668 65.0856 48.1941C64.9626 48.9213 64.903 49.7232 64.903 50.5998C64.903 52.0346 65.1412 53.379 65.6216 54.6448C66.098 55.9067 66.7491 57.0192 67.5709 57.9783C68.3927 58.9375 69.3614 59.7197 70.477 60.3291C70.7668 60.4863 71.0805 60.5806 71.3822 60.7025C71.9301 60.73 72.4462 60.8637 73.002 60.8637C78.9651 60.8637 84.4795 59.1104 89.192 56.2015C87.5285 55.3839 85.9326 54.4443 84.4716 53.2415C82.288 51.4371 80.4221 49.3419 78.8618 46.9597C77.3056 44.5775 76.0947 41.9831 75.2371 39.1842C74.3756 36.3853 73.9469 33.5354 73.9469 30.6343C73.9469 28.6884 74.1414 26.7505 74.5305 24.8243C74.9195 22.8981 75.4833 21.0348 76.2217 19.2422V19.2344Z" fill="#756254"/>
<path d="M90.522 5.47585C88.8546 6.72984 87.3578 8.10176 86.1589 9.67809C84.6741 11.6357 83.487 13.7467 82.5937 16.007C81.7044 18.2673 81.0732 20.6417 80.704 23.126C80.3348 25.6104 80.1521 28.1106 80.1521 30.6264C80.1521 33.1422 80.299 35.5559 80.5968 37.9892C80.8945 40.4224 81.4662 42.7496 82.3158 44.9706C83.1654 47.1916 84.3445 49.2672 85.8492 51.1934C87.076 52.7658 88.6799 54.1377 90.4982 55.3995C98.482 49.904 103.73 40.7841 103.73 30.4259C103.73 20.0677 98.49 10.9675 90.522 5.47192V5.47585Z" fill="#897466"/>
<path d="M63.9423 58.5012C62.644 57.2157 61.6198 55.7062 60.8694 53.9844C60.123 52.2587 59.7459 50.4269 59.7459 48.4811C59.7459 47.7774 59.8015 47.0895 59.9126 46.4212C60.0238 45.7529 60.1508 45.0729 60.2977 44.381C60.4446 43.6892 60.5756 42.9619 60.6828 42.1954C60.794 41.4288 60.8496 40.5876 60.8496 39.6638C60.8496 38.4963 60.6352 37.3917 60.2064 36.35C59.7776 35.3043 59.1821 34.4002 58.4199 33.6376C57.6576 32.8711 56.7762 32.2657 55.7718 31.8175C54.7674 31.3694 53.6875 31.1453 52.5322 31.1453V29.4314C53.6835 29.4314 54.7634 29.2074 55.7718 28.7592C56.7762 28.3111 57.6616 27.7018 58.4199 26.9392C59.1821 26.1726 59.7737 25.2685 60.2064 24.2268C60.6352 23.1811 60.8496 22.0765 60.8496 20.913C60.8496 19.8909 60.794 18.971 60.6828 18.1455C60.5716 17.32 60.4446 16.5535 60.2977 15.8498C60.1508 15.1462 60.0198 14.4897 59.9126 13.8843C59.8015 13.279 59.7459 12.6814 59.7459 12.0997C59.7459 10.1813 60.1191 8.38486 60.8694 6.70632C61.6158 5.03171 62.6401 3.56152 63.9423 2.29967C64.4345 1.82402 64.9864 1.41913 65.5382 1.02209C52.1868 4.33593 42.2616 16.1997 42.2616 30.4456C42.2616 44.6916 52.2345 56.6182 65.6335 59.9006C65.042 59.4721 64.4584 59.0358 63.9383 58.5208L63.9423 58.5012Z" fill="#5E4F45"/>
</g>
<defs>
<clipPath id="clip0_1_12">
<rect width="146" height="85" fill="white"/>
</clipPath>
</defs>
</svg>
